<svg data-v-6805eed4="" version="1.0" xmlns="http://www.w3.org/2000/svg" xmlns:xlink="http://www.w3.org/1999/xlink" width="100%" height="100%" viewBox="0 0 340.000000 250.000000" preserveAspectRatio="xMidYMid meet" color-interpolation-filters="sRGB" style="margin: auto;"> <rect data-v-6805eed4="" x="0" y="0" width="100%" height="100%" fill="#fff" fill-opacity="1" class="background"></rect> <rect data-v-6805eed4="" x="0" y="0" width="100%" height="100%" fill="url(#watermark)" fill-opacity="1" class="watermarklayer"></rect> <g data-v-6805eed4="" fill="#000000" class="icon-text-wrapper icon-svg-group iconsvg" transform="translate(47.334999084472656,94.99159812927246)"><g class="iconsvg-imagesvg" transform="translate(0,0)"><g><rect fill="#000000" fill-opacity="0" stroke-width="2" x="0" y="0" width="60" height="60.01680470531748" class="image-rect"></rect> <svg x="0" y="0" width="60" height="60.01680470531748" filtersec="colorsb961091979" class="image-svg-svg primary" style="overflow: visible;"><svg fill="#000000" xmlns="http://www.w3.org/2000/svg" xmlns:xlink="http://www.w3.org/1999/xlink" version="1.1" x="0px" y="0px" viewBox="5.699999809265137 5.724999904632568 88.55000305175781 88.57500457763672" style="enable-background:new 0 0 100 100;" xml:space="preserve"><path d="M48.9,6.1L35,20c-1.2,1.2-1.9,2.8-1.9,4.5c0,1.7,0.7,3.3,1.9,4.5c0,0,0,0,0,0L48.9,43c0.3,0.3,0.7,0.4,1.1,0.4  s0.8-0.2,1.1-0.4L65,29.1c2.5-2.5,2.5-6.6,0-9.1L51.1,6.1C50.5,5.6,49.5,5.6,48.9,6.1z"></path><path d="M43.5,50c0-0.4-0.2-0.8-0.4-1.1L29.1,35c-2.5-2.5-6.6-2.5-9.1,0L6.1,48.9c-0.3,0.3-0.4,0.7-0.4,1.1s0.2,0.8,0.4,1.1L20,65  c1.2,1.2,2.8,1.9,4.5,1.9s3.3-0.7,4.5-1.9L43,51.1C43.3,50.8,43.5,50.4,43.5,50z"></path><path d="M80,35c-2.5-2.5-6.6-2.5-9.1,0L57,48.9c-0.3,0.3-0.4,0.7-0.4,1.1s0.2,0.8,0.4,1.1L70.9,65c1.2,1.2,2.8,1.9,4.5,1.9  c1.7,0,3.3-0.7,4.5-1.9l13.9-13.9c0.6-0.6,0.6-1.5,0-2.1L80,35z"></path><path d="M51.1,57c-0.6-0.6-1.5-0.6-2.1,0L35,70.9c-2.5,2.5-2.5,6.6,0,9.1l13.9,13.9c0.3,0.3,0.7,0.4,1.1,0.4s0.8-0.1,1.1-0.4L65,80  c2.5-2.5,2.5-6.6,0-9.1L51.1,57z"></path></svg></svg> <!----></g></g> <g transform="translate(67,12.115402221679688)"><g data-gra="path-name" fill-rule="" class="tp-name iconsvg-namesvg" transform="translate(0,0)"><g transform="scale(1)"><g><path d="M5.73-8.88L5.73-8.88Q3.82-9.39 2.65-10.19 1.48-11 0.85-11.89 0.21-12.78 0-13.68-0.21-14.57-0.21-15.27L-0.21-15.27Q-0.21-16.57 0.32-17.69 0.85-18.81 1.79-19.64 2.73-20.48 3.97-20.95 5.21-21.42 6.66-21.42L6.66-21.42Q8.21-21.42 9.36-21.13 10.51-20.84 11.45-20.33L11.45-20.33 11.45-20.39 12.27-21.2 13.03-21.2 11.45-19.63 11.45-19.36 13.3-21.2 14.06-21.2 11.45-18.6 11.45-18.33 14.33-21.2 15.09-21.2 11.45-17.57 11.45-17.3 15.36-21.2 15.69-21.2 15.69-20.78 11.45-16.54 11.45-16.27 15.69-20.51 15.69-19.78 11.45-15.54 11.45-15.27 15.69-19.51 15.69-18.75 11.78-14.84 11.42-14.84Q10.91-15.42 10.42-15.86 9.94-16.3 9.39-16.59 8.85-16.87 8.19-17.02 7.54-17.18 6.66-17.18L6.66-17.18Q5.42-17.18 4.73-16.57 4.03-15.96 4.03-15.27L4.03-15.27Q4.03-14.06 5.73-13.33L5.73-13.33Q6.66-12.94 8.27-12.66L8.27-12.66Q8.72-12.6 9.15-12.51 9.57-12.42 9.97-12.33L9.97-12.33Q10.12-12.27 10.22-12.25 10.33-12.24 10.45-12.18L10.45-12.18 9.97-11.69 9.97-11.42 10.66-12.12Q10.81-12.06 10.95-12.03 11.09-12 11.24-11.94L11.24-11.94 9.97-10.66 9.97-10.39 11.42-11.84Q11.57-11.78 11.69-11.74 11.81-11.69 11.97-11.63L11.97-11.63 9.97-9.63 9.97-9.36 12.15-11.54Q12.39-11.39 12.63-11.3L12.63-11.3 9.97-8.6 9.97-8.36 12.81-11.18 13.27-10.91 10.18-7.79Q10.09-7.82 9.97-7.88L9.97-7.88Q9.42-8.12 8.82-8.25 8.21-8.39 7.63-8.48L7.63-8.48Q7.12-8.54 6.63-8.65 6.15-8.75 5.73-8.88ZM15.69-17.45L15.69-16.69 13.84-14.84 13.09-14.84 15.69-17.45ZM15.69-18.48L15.69-17.72 12.81-14.84 12.06-14.84 15.69-18.48ZM0 0L0-0.24 0.24 0 0 0ZM15.69-16.42L15.69-15.66 14.87-14.84 14.12-14.84 15.69-16.42ZM11.45-21.2L12-21.2 11.45-20.66 11.45-21.2ZM10.36-7.69L13.42-10.78Q13.54-10.69 13.65-10.62 13.75-10.54 13.84-10.45L13.84-10.45 10.84-7.42Q10.63-7.57 10.36-7.69L10.36-7.69ZM15.69-15.39L15.69-14.84 15.15-14.84 15.69-15.39ZM0-0.73L0-1.27 1.27 0 0.73 0 0-0.73ZM14.39-9.97L11.39-6.97Q11.3-7.06 11.21-7.15 11.12-7.24 11-7.33L11-7.33 14-10.33Q14.12-10.24 14.21-10.15 14.3-10.06 14.39-9.97L14.39-9.97ZM14.87-9.42L11.75-6.3Q11.66-6.54 11.51-6.82L11.51-6.82 14.51-9.81Q14.6-9.72 14.69-9.62 14.78-9.51 14.87-9.42L14.87-9.42ZM15.27-8.78L11.78-5.33Q11.87-5.51 11.87-5.73L11.87-5.73Q11.87-5.88 11.81-6.12L11.81-6.12 14.96-9.27Q15.06-9.15 15.13-9.03 15.21-8.91 15.27-8.78L15.27-8.78ZM0-3.79L0-4.33 4.24-0.09 4.24 0 3.79 0 0-3.79ZM5.97-0.24L9.78-4.06Q10.45-4.15 10.81-4.36L10.81-4.36 6.54-0.09Q6.3-0.12 5.97-0.24L5.97-0.24ZM6.79-0.03L15.36-8.63Q15.42-8.48 15.49-8.36 15.57-8.24 15.63-8.12L15.63-8.12 7.42 0.09Q7.27 0.06 7.1 0.05 6.94 0.03 6.79-0.03L6.79-0.03ZM7.66 0.12L15.69-7.94Q15.84-7.6 15.87-7.36L15.87-7.36 8.33 0.18Q8.18 0.18 8 0.17 7.82 0.15 7.66 0.12L7.66 0.12ZM9.21-4.03L9.48-4.03 5.76-0.3Q5.6-0.36 5.47-0.41 5.33-0.45 5.18-0.51L5.18-0.51 8.72-4.03 9.21-4.03ZM4.48-0.82L7.82-4.15Q7.97-4.09 8.13-4.09 8.3-4.09 8.48-4.06L8.48-4.06 5-0.58Q4.85-0.64 4.74-0.7 4.63-0.76 4.48-0.82L4.48-0.82ZM4-1.36L7-4.36Q7.15-4.3 7.29-4.27 7.42-4.24 7.57-4.18L7.57-4.18 4.3-0.91Q4.3-0.91 4.24-0.94L4.24-0.94 4.24-0.58 3.27-1.54 3.21-1.61 3.09-1.73 3.06-1.7Q2.94-1.79 2.83-1.88 2.73-1.97 2.64-2.03L2.64-2.03 2.7-2.12 2.57-2.24 2.48-2.15Q2.39-2.24 2.29-2.33 2.18-2.42 2.09-2.51L2.09-2.51 2.18-2.64 2.06-2.76 1.94-2.64Q1.85-2.73 1.76-2.83 1.67-2.94 1.58-3.03L1.58-3.03 1.7-3.15 1.54-3.27 1.42-3.15Q1.33-3.27 1.24-3.36 1.15-3.45 1.06-3.54L1.06-3.54 1.18-3.67 1.03-3.79 0.94-3.7Q0.85-3.79 0.76-3.89 0.67-4 0.58-4.09L0.58-4.09 0.67-4.15 0.51-4.3 0.45-4.24Q0.36-4.33 0.29-4.44 0.21-4.54 0.12-4.63L0.12-4.63 0.15-4.67 0-4.82 0-4.79 0-5.54 0.15-5.7 0-5.85 0-5.82 0-6.36 4.24-6.36Q4.36-6.24 4.42-6.15L4.42-6.15 4.24-5.97 4.24-5.7 4.12-5.85 3.88-5.6 4-5.45 4.57-6.03Q4.67-5.91 4.76-5.82 4.85-5.73 4.94-5.63L4.94-5.63 4.24-4.94 4.24-4.7 4.12-4.82 3.88-4.57 4-4.42 5.09-5.51Q5.27-5.3 5.51-5.18L5.51-5.18 4.24-3.91 4.24-3.67 4.12-3.79 3.88-3.54 4-3.42 5.66-5.06Q5.91-4.85 6.12-4.76L6.12-4.76 4.24-2.88 4.24-2.64 4.12-2.76 3.88-2.51 4-2.39 6.27-4.67Q6.42-4.6 6.53-4.54 6.63-4.48 6.79-4.42L6.79-4.42 4.24-1.88 4.24-1.61 4.12-1.73 3.88-1.48 4-1.36ZM0.27-6.12L0.51-6.36 0.67-6.21 0.42-5.97 0.27-6.12ZM0.42-4.94L0.67-5.18 0.51-5.33 0.27-5.09 0.42-4.94ZM0.94-4.42L1.18-4.67 1.03-4.82 0.79-4.57 0.94-4.42ZM0.94-5.45L1.18-5.7 1.03-5.85 0.79-5.6 0.94-5.45ZM1.45-3.94L1.7-4.15 1.54-4.3 1.3-4.06 1.45-3.94ZM1.45-4.94L1.7-5.18 1.54-5.33 1.3-5.09 1.45-4.94ZM1.7-6.21L1.45-5.97 1.3-6.12 1.54-6.36 1.7-6.21ZM1.97-3.42L2.18-3.67 2.06-3.79 1.82-3.54 1.97-3.42ZM1.97-4.42L2.18-4.67 2.06-4.82 1.82-4.57 1.97-4.42ZM1.97-5.45L2.18-5.7 2.06-5.85 1.82-5.6 1.97-5.45ZM2.45-2.91L2.7-3.15 2.57-3.27 2.33-3.03 2.45-2.91ZM2.45-3.94L2.7-4.15 2.57-4.3 2.33-4.06 2.45-3.94ZM2.45-4.94L2.7-5.18 2.57-5.33 2.33-5.09 2.45-4.94ZM2.7-6.21L2.45-5.97 2.33-6.12 2.57-6.36 2.7-6.21ZM2.97-2.39L3.21-2.64 3.09-2.76 2.85-2.51 2.97-2.39ZM2.97-3.42L3.21-3.67 3.09-3.79 2.85-3.54 2.97-3.42ZM2.97-4.42L3.21-4.67 3.09-4.82 2.85-4.57 2.97-4.42ZM2.97-5.45L3.21-5.7 3.09-5.85 2.85-5.6 2.97-5.45ZM3.48-1.88L3.73-2.12 3.6-2.24 3.36-2 3.48-1.88ZM3.48-2.91L3.73-3.15 3.6-3.27 3.36-3.03 3.48-2.91ZM3.48-3.94L3.73-4.15 3.6-4.3 3.36-4.06 3.48-3.94ZM3.48-4.94L3.73-5.18 3.6-5.33 3.36-5.09 3.48-4.94ZM3.73-6.21L3.48-5.97 3.36-6.12 3.6-6.36 3.73-6.21ZM14.84-2.24L14.03-1.39Q13.18-0.73 12.21-0.33L12.21-0.33 15.81-3.94Q15.51-3.03 14.84-2.24L14.84-2.24ZM0-2.79L0-3.3 3.3 0 2.79 0 0-2.79ZM9.6 0.21L16.09-6.27Q16.09-6.12 16.1-5.98 16.12-5.85 16.12-5.73L16.12-5.73Q16.12-5.6 16.09-5.51L16.09-5.51 10.45 0.12Q10.24 0.15 10.04 0.17 9.85 0.18 9.6 0.21L9.6 0.21ZM15.93-4.33L11.78-0.18Q11.54-0.12 11.28-0.06 11.03 0 10.78 0.06L10.78 0.06 16.09-5.24Q16.06-5 16.02-4.79 15.99-4.57 15.93-4.33L15.93-4.33ZM8.6 0.18L15.93-7.15Q15.99-6.97 16.01-6.82 16.02-6.66 16.06-6.51L16.06-6.51 9.33 0.21 9.21 0.21Q9.06 0.21 8.91 0.21 8.75 0.21 8.6 0.18L8.6 0.18ZM0-1.76L0-2.3 2.3 0 1.76 0 0-1.76ZM26.32-0.97L25.36 0 24.6 0 26.32-1.73 26.32-0.97ZM20.51 0L24.75-4.24 25.51-4.24 21.27 0 20.51 0ZM26.32-0.7L26.32 0 25.63 0 26.32-0.7ZM17.84-3.48L18.6-4.24 19.36-4.24 17.84-2.73 17.84-3.48ZM28.23-20.24L29.2-21.2 29.96-21.2 28.23-19.48 28.23-20.24ZM17.84-3.76L17.84-4.24 18.33-4.24 17.84-3.76ZM26.32-3.03L23.3 0 22.54 0 26.32-3.79 26.32-3.03ZM26.32-2L24.33 0 23.57 0 26.32-2.76 26.32-2ZM36.38-21.2L36.71-21.2 36.71-20.78 34.35-18.42 34.5-18.3 36.71-20.51 36.71-19.75 34.35-17.39 34.5-17.27 36.71-19.48 36.71-18.72 34.96-16.96 34.59-16.96 34.59-16.63 34.26-16.96 34.2-16.96 34.23-16.99 34.08-17.12 33.93-16.96 33.78-16.96 34.59-16.15 34.59-15.6 33.23-16.96 33.17-16.96 33.2-16.99 33.08-17.12 32.9-16.96 32.75-16.96 34.59-15.12 34.59-14.57 32.2-16.96 32.14-16.96 32.17-16.99 32.05-17.12 31.87-16.96 31.72-16.96 34.59-14.09 34.59-13.54 31.17-16.96 31.14-16.96 31.14-16.99 31.02-17.12 30.87-16.96 30.69-16.96 34.59-13.06 34.59-8.42 34.53-8.48 34.05-8.48 34.59-7.94 34.59-7.39 33.5-8.48 33.02-8.48 34.59-6.91 34.59-6.36 32.47-8.48 32.02-8.48 34.59-5.91 34.59-5.36 31.47-8.48 30.99-8.48 34.59-4.88 34.59-4.33 30.44-8.48 24.2-8.48 24.2-4.24 24.48-4.24 20.24 0 19.48 0 23.72-4.24 23.45-4.24 19.21 0 18.45 0 22.69-4.24 22.42-4.24 18.18 0 17.84 0 17.84-0.42 21.66-4.24 21.39-4.24 17.84-0.7 17.84-1.45 20.63-4.24 20.36-4.24 17.84-1.73 17.84-2.48 19.6-4.24 19.96-4.24 19.96-16.96 19.9-16.96 17.84-19.02 17.84-19.57 20.45-16.96 20.93-16.96 17.84-20.05 17.84-20.6 21.48-16.96 21.96-16.96 17.84-21.08 17.84-21.2 18.27-21.2 22.51-16.96 22.99-16.96 18.75-21.2 19.3-21.2 23.54-16.96 23.99-16.96 19.75-21.2 20.3-21.2 24.54-16.96 24.2-16.96 24.2-12.72 30.35-12.72 30.35-13.21 30.84-12.72 31.32-12.72 30.35-13.69 30.35-14.24 31.87-12.72 32.35-12.72 30.35-14.72 30.35-15.27 32.9-12.72 33.38-12.72 30.35-15.75 30.35-16.3 33.93-12.72 34.38-12.72 30.35-16.75 30.35-16.96 30.11-16.96 30.35-17.21 30.35-17.3 30.41-17.27 30.63-17.51 30.5-17.63 29.84-16.96 29.08-16.96 30.35-18.24 30.35-18.33 30.41-18.3 30.63-18.54 30.5-18.66 28.81-16.96 28.23-16.96 28.23-17.15 30.35-19.27 30.35-19.36 30.41-19.33 30.63-19.54 30.5-19.69 28.23-17.42 28.23-18.18 30.35-20.3 30.35-20.39 30.41-20.33 30.63-20.57 30.5-20.72 28.23-18.45 28.23-19.21 30.23-21.2 30.99-21.2 30.78-20.99 30.9-20.84 31.14-21.08 31.05-21.2 32.02-21.2 31.81-20.99 31.93-20.84 32.17-21.08 32.05-21.2 33.05-21.2 32.84-20.99 32.96-20.84 33.2-21.08 33.08-21.2 34.08-21.2 33.87-20.99 33.99-20.84 34.23-21.08 34.11-21.2 35.11-21.2 34.35-20.48 34.5-20.33 35.38-21.2 36.11-21.2 34.35-19.45 34.5-19.33 36.38-21.2ZM30.78-17.9L30.9-17.78 31.14-18.02 31.02-18.15 30.78-17.9ZM30.78-18.93L30.9-18.81 31.14-19.05 31.02-19.18 30.78-18.93ZM30.78-19.96L30.9-19.81 31.14-20.05 31.02-20.21 30.78-19.96ZM31.29-17.39L31.41-17.27 31.66-17.51 31.53-17.63 31.29-17.39ZM31.29-18.42L31.41-18.3 31.66-18.54 31.53-18.66 31.29-18.42ZM31.29-19.45L31.41-19.33 31.66-19.54 31.53-19.69 31.29-19.45ZM31.29-20.48L31.41-20.33 31.66-20.57 31.53-20.72 31.29-20.48ZM31.81-17.9L31.93-17.78 32.17-18.02 32.05-18.15 31.81-17.9ZM31.81-18.93L31.93-18.81 32.17-19.05 32.05-19.18 31.81-18.93ZM31.81-19.96L31.93-19.81 32.17-20.05 32.05-20.21 31.81-19.96ZM32.32-17.39L32.44-17.27 32.69-17.51 32.56-17.63 32.32-17.39ZM32.32-18.42L32.44-18.3 32.69-18.54 32.56-18.66 32.32-18.42ZM32.32-19.45L32.44-19.33 32.69-19.54 32.56-19.69 32.32-19.45ZM32.32-20.48L32.44-20.33 32.69-20.57 32.56-20.72 32.32-20.48ZM32.84-17.9L32.96-17.78 33.2-18.02 33.08-18.15 32.84-17.9ZM32.84-18.93L32.96-18.81 33.2-19.05 33.08-19.18 32.84-18.93ZM32.84-19.96L32.96-19.81 33.2-20.05 33.08-20.21 32.84-19.96ZM33.35-17.39L33.47-17.27 33.72-17.51 33.59-17.63 33.35-17.39ZM33.35-18.42L33.47-18.3 33.72-18.54 33.59-18.66 33.35-18.42ZM33.35-19.45L33.47-19.33 33.72-19.54 33.59-19.69 33.35-19.45ZM33.35-20.48L33.47-20.33 33.72-20.57 33.59-20.72 33.35-20.48ZM33.87-17.9L33.99-17.78 34.23-18.02 34.08-18.15 33.87-17.9ZM33.87-18.93L33.99-18.81 34.23-19.05 34.08-19.18 33.87-18.93ZM33.87-19.96L33.99-19.81 34.23-20.05 34.08-20.21 33.87-19.96ZM36.71-17.42L36.71-16.96 36.26-16.96 36.71-17.42ZM36.71-17.69L35.99-16.96 35.23-16.96 36.71-18.45 36.71-17.69ZM22.27 0L21.51 0 25.75-4.24 26.32-4.24 26.32-4.06 22.27 0ZM28.23-20.48L28.23-21.2 28.96-21.2 28.23-20.48ZM25.45-21.2L26.32-20.33 26.32-19.78 24.9-21.2 25.45-21.2ZM25.9-21.2L26.32-21.2 26.32-20.78 25.9-21.2ZM24.42-21.2L26.32-19.3 26.32-18.75 23.87-21.2 24.42-21.2ZM17.84-18.54L19.42-16.96 18.87-16.96 17.84-17.99 17.84-18.54ZM17.84-17.51L18.39-16.96 17.84-16.96 17.84-16.96 17.84-17.51ZM30.35-7.54L30.35-8.09 34.2-4.24 36.71-4.24 36.71 0 28.23 0 28.23-4.24 30.57-4.24 30.35-4.45 30.35-5 31.11-4.24 31.6-4.24 30.35-5.48 30.35-6.03 32.14-4.24 32.63-4.24 30.35-6.51 30.35-7.06 33.17-4.24 33.66-4.24 30.35-7.54ZM26.32-17.24L26.32-16.96 26.05-16.96 21.81-21.2 22.36-21.2 26.32-17.24ZM23.39-21.2L26.32-18.27 26.32-17.72 22.84-21.2 23.39-21.2ZM21.33-21.2L25.57-16.96 25.02-16.96 20.78-21.2 21.33-21.2ZM55.56-14.84L55.56-6.36 55.31-6.36 55.56-6.12Q55.56-5.97 55.54-5.86 55.53-5.76 55.5-5.6L55.5-5.6 54.77-6.36 54.28-6.36 55.44-5.21 55.35-4.76 53.74-6.36 53.25-6.36 55.25-4.39Q55.19-4.27 55.16-4.18 55.13-4.09 55.1-3.97L55.1-3.97 52.71-6.36 52.22-6.36 54.95-3.64Q54.83-3.39 54.77-3.3L54.77-3.3 51.68-6.36 51.32-6.36 51.32-14.84Q51.32-14.99 51.3-15.12 51.29-15.24 51.26-15.39L51.26-15.39 54.38-18.51Q54.47-18.39 54.54-18.28 54.62-18.18 54.68-18.05L54.68-18.05 51.47-14.84 51.74-14.84 54.77-17.9Q54.83-17.75 54.89-17.65 54.95-17.54 55.01-17.39L55.01-17.39 52.5-14.84 52.77-14.84 55.1-17.21Q55.16-17.05 55.21-16.92 55.25-16.78 55.31-16.63L55.31-16.63 53.5-14.84 53.77-14.84 55.35-16.42Q55.41-16.27 55.44-16.1 55.47-15.93 55.5-15.78L55.5-15.78 54.53-14.84 54.8-14.84 55.53-15.54Q55.56-15.39 55.56-15.21 55.56-15.03 55.56-14.84L55.56-14.84ZM53.8-19.24L50.8-16.24Q50.71-16.33 50.62-16.42 50.53-16.51 50.41-16.6L50.41-16.6 53.41-19.6Q53.53-19.51 53.62-19.42 53.71-19.33 53.8-19.24L53.8-19.24ZM53.25-19.72L50.23-16.69Q50.04-16.81 49.68-16.9L49.68-16.9 52.83-20.05Q53.04-19.9 53.25-19.72L53.25-19.72ZM54.25-18.66L51.16-15.57Q51.07-15.81 50.92-16.09L50.92-16.09 53.92-19.08Q54.1-18.87 54.25-18.66L54.25-18.66ZM42.83-14.36L42.83-13.81 39.17-17.48 39.35-17.84 42.83-14.36ZM49.2-4.24L49.23-4.24 52.53-0.94 52.16-0.76 49.2-3.73 49.2-3.24 51.86-0.58Q51.77-0.51 51.68-0.5 51.59-0.48 51.47-0.42L51.47-0.42 49.2-2.7 49.2-2.21 51.13-0.3Q50.98-0.24 50.68-0.18L50.68-0.18 49.2-1.67 49.2-1.21 50.29-0.09Q50.16-0.06 50.06-0.06 49.95-0.06 49.83-0.03L49.83-0.03 49.2-0.67 49.2-0.18 49.38 0 49.2 0 44.95 0Q43.62 0 42.47-0.5 41.32-1 40.46-1.86 39.59-2.73 39.09-3.88 38.59-5.03 38.59-6.36L38.59-6.36 38.99-6.36 38.59-6.76 38.59-7.3 39.53-6.36 40.02-6.36 38.59-7.79 38.59-8.33 40.56-6.36 41.05-6.36 38.59-8.82 38.59-9.36 41.59-6.36 42.08-6.36 38.59-9.85 38.59-10.39 42.62-6.36 42.83-6.36Q42.83-5.48 43.46-4.86 44.08-4.24 44.95-4.24L44.95-4.24 49.2-4.24ZM42.83-7.18L42.83-6.63 38.59-10.88 38.59-11.42 42.83-7.18ZM42.83-8.21L42.83-7.66 38.59-11.91 38.59-12.45 42.83-8.21ZM42.83-9.21L42.83-8.66 38.59-12.9 38.59-13.45 42.83-9.21ZM52.8-1.12L49.65-4.3Q49.89-4.36 50.07-4.42L50.07-4.42 53.13-1.36Q53.04-1.3 52.97-1.24 52.89-1.18 52.8-1.12L52.8-1.12ZM54.38-2.67L51.23-5.79Q51.32-6 51.32-6.27L51.32-6.27 54.59-3Q54.53-2.91 54.48-2.82 54.44-2.73 54.38-2.67L54.38-2.67ZM53.92-2.09L50.89-5.09Q50.98-5.21 51.1-5.45L51.1-5.45 54.16-2.39Q54.1-2.3 54.04-2.23 53.98-2.15 53.92-2.09L53.92-2.09ZM53.38-1.58L50.38-4.6Q50.56-4.73 50.68-4.85L50.68-4.85 53.68-1.85Q53.5-1.67 53.38-1.58L53.38-1.58ZM42.83-14.84L42.83-14.81 39.53-18.15Q39.59-18.3 39.74-18.48L39.74-18.48 42.89-15.33Q42.83-15.03 42.83-14.84L42.83-14.84ZM40.68-19.57L43.71-16.54Q43.59-16.48 43.41-16.3L43.41-16.3 40.41-19.3 40.68-19.57ZM42.83-10.24L42.83-9.69 38.59-13.93 38.59-14.48 42.83-10.24ZM41.26-20.02L44.41-16.87Q44.14-16.81 44.02-16.72L44.02-16.72 40.96-19.78Q41.02-19.84 41.11-19.9 41.2-19.96 41.26-20.02L41.26-20.02ZM44.95-16.96L44.8-16.96 41.56-20.21Q41.65-20.3 41.89-20.42L41.89-20.42 44.98-17.33 45.23-17.57 45.08-17.69 44.95-17.57 44.95-17.84 42.2-20.57Q42.29-20.63 42.39-20.66 42.5-20.69 42.59-20.75L42.59-20.75 44.98-18.36 45.23-18.6 45.08-18.72 44.95-18.6 44.95-18.84 42.92-20.87Q43.05-20.93 43.15-20.95 43.26-20.96 43.35-20.99L43.35-20.99 44.98-19.36 45.23-19.6 45.08-19.75 44.95-19.6 44.95-19.87 43.74-21.08Q43.86-21.11 43.97-21.13 44.08-21.14 44.23-21.17L44.23-21.17 44.98-20.39 45.23-20.63 45.08-20.78 44.95-20.63 44.95-20.9 44.65-21.2 44.95-21.2 45.53-21.2 45.35-21.05 45.5-20.9 45.74-21.14 45.68-21.2 46.56-21.2 46.38-21.05 46.53-20.9 46.77-21.14 46.71-21.2 47.56-21.2 47.41-21.05 47.56-20.9 47.77-21.14 47.74-21.2 48.59-21.2 48.44-21.05 48.56-20.9 48.8-21.14 48.77-21.2 49.2-21.2 49.62-21.2 49.2-20.78 48.95-20.54 49.07-20.39 49.86-21.17Q50.01-21.14 50.18-21.13 50.35-21.11 50.5-21.05L50.5-21.05 49.2-19.75 48.95-19.51 49.07-19.36 50.74-21.02Q50.89-20.96 51.03-20.93 51.16-20.9 51.32-20.84L51.32-20.84 49.2-18.72 48.95-18.48 49.07-18.36 51.5-20.78Q51.65-20.72 51.77-20.66 51.89-20.6 52.04-20.54L52.04-20.54 49.2-17.69 48.95-17.45 49.07-17.33 52.19-20.45Q52.35-20.39 52.45-20.31 52.56-20.24 52.68-20.18L52.68-20.18 49.47-16.93Q49.38-16.96 49.2-16.96L49.2-16.96 48.71-16.96 48.8-17.05 48.68-17.18 48.47-16.96 47.71-16.96 47.77-17.05 47.65-17.18 47.44-16.96 46.68-16.96 46.77-17.05 46.62-17.18 46.41-16.96 45.65-16.96 45.74-17.05 45.59-17.18 45.38-16.96 44.95-16.96ZM48.68-20.27L48.44-20.02 48.56-19.87 48.8-20.11 48.68-20.27ZM48.68-19.24L48.44-18.99 48.56-18.87 48.8-19.11 48.68-19.24ZM48.68-18.21L48.44-17.96 48.56-17.84 48.8-18.08 48.68-18.21ZM48.17-20.78L47.92-20.54 48.04-20.39 48.29-20.63 48.17-20.78ZM48.17-19.75L47.92-19.51 48.04-19.36 48.29-19.6 48.17-19.75ZM48.17-18.72L47.92-18.48 48.04-18.36 48.29-18.6 48.17-18.72ZM48.17-17.69L47.92-17.45 48.04-17.33 48.29-17.57 48.17-17.69ZM47.65-20.27L47.41-20.02 47.56-19.87 47.77-20.11 47.65-20.27ZM47.65-19.24L47.41-18.99 47.56-18.87 47.77-19.11 47.65-19.24ZM47.65-18.21L47.41-17.96 47.56-17.84 47.77-18.08 47.65-18.21ZM47.14-20.78L46.89-20.54 47.04-20.39 47.29-20.63 47.14-20.78ZM47.14-19.75L46.89-19.51 47.04-19.36 47.29-19.6 47.14-19.75ZM47.14-18.72L46.89-18.48 47.04-18.36 47.29-18.6 47.14-18.72ZM47.14-17.69L46.89-17.45 47.04-17.33 47.29-17.57 47.14-17.69ZM46.62-20.27L46.38-20.02 46.53-19.87 46.77-20.11 46.62-20.27ZM46.62-19.24L46.38-18.99 46.53-18.87 46.77-19.11 46.62-19.24ZM46.62-18.21L46.38-17.96 46.53-17.84 46.77-18.08 46.62-18.21ZM46.11-20.78L45.86-20.54 46.01-20.39 46.26-20.63 46.11-20.78ZM46.11-19.75L45.86-19.51 46.01-19.36 46.26-19.6 46.11-19.75ZM46.11-18.72L45.86-18.48 46.01-18.36 46.26-18.6 46.11-18.72ZM46.11-17.69L45.86-17.45 46.01-17.33 46.26-17.57 46.11-17.69ZM45.59-20.27L45.35-20.02 45.5-19.87 45.74-20.11 45.59-20.27ZM45.59-19.24L45.35-18.99 45.5-18.87 45.74-19.11 45.59-19.24ZM45.59-18.21L45.35-17.96 45.5-17.84 45.74-18.08 45.59-18.21ZM40.2-19.05L43.2-16.02Q43.14-15.96 43.09-15.87 43.05-15.78 43.02-15.69L43.02-15.69 39.93-18.75Q39.99-18.81 40.06-18.9 40.14-18.99 40.2-19.05L40.2-19.05ZM42.83-11.27L42.83-10.72 38.59-14.96Q38.59-15.12 38.59-15.22 38.59-15.33 38.62-15.48L38.62-15.48 42.83-11.27ZM42.83-12.3L42.83-11.75 38.68-15.9 38.77-16.36 42.83-12.3ZM42.83-13.33L42.83-12.78 38.87-16.72Q38.93-16.84 38.94-16.93 38.96-17.02 39.02-17.15L39.02-17.15 42.83-13.33ZM72.37-19.05L69.37-16.06Q69.28-16.15 69.17-16.24 69.07-16.33 68.98-16.42L68.98-16.42 71.98-19.42Q72.07-19.33 72.17-19.24 72.28-19.15 72.37-19.05L72.37-19.05ZM71.82-19.54L68.83-16.54Q68.55-16.69 68.31-16.78L68.31-16.78 71.4-19.87Q71.61-19.72 71.82-19.54L71.82-19.54ZM65.04-7.63L64.28-7.63 73.67-17.02Q73.73-16.87 73.78-16.74 73.82-16.6 73.88-16.45L73.88-16.45 65.04-7.63ZM71.25-19.99L68.13-16.87Q67.8-16.96 67.46-16.96L67.46-16.96 70.79-20.3Q70.92-20.24 71.02-20.16 71.13-20.08 71.25-19.99L71.25-19.99ZM73.25-17.87L69.95-14.57Q69.89-14.99 69.82-15.21L69.82-15.21 72.95-18.33Q73.01-18.21 73.1-18.1 73.19-17.99 73.25-17.87L73.25-17.87ZM73.58-17.21L69.67-13.3Q69.89-13.75 69.95-14.3L69.95-14.3 73.34-17.72Q73.4-17.57 73.46-17.46 73.52-17.36 73.58-17.21L73.58-17.21ZM72.82-18.48L69.73-15.42Q69.61-15.69 69.46-15.9L69.46-15.9 72.49-18.9Q72.67-18.69 72.82-18.48L72.82-18.48ZM65.31-7.63L73.94-16.27Q73.98-16.12 74.01-15.95 74.04-15.78 74.07-15.63L74.07-15.63 66.07-7.63 65.31-7.63ZM73.85-12.36L69.46-7.97Q69.22-7.88 68.98-7.83 68.73-7.79 68.46-7.72L68.46-7.72 74.1-13.36Q74.04-13.09 73.99-12.84 73.94-12.6 73.85-12.36L73.85-12.36ZM66.34-7.63L74.13-15.42Q74.16-15.24 74.16-15.07 74.16-14.9 74.19-14.72L74.19-14.72 67.1-7.63 66.34-7.63ZM72.61-10.06L71.76-9.21Q70.89-8.51 69.89-8.12L69.89-8.12 73.7-11.94Q73.31-10.94 72.61-10.06L72.61-10.06ZM65.22-4.03L65.46-4.24 65.92-4.24 65.92-3.82 65.86-3.88 65.61-3.64 65.74-3.51 65.92-3.7 65.92-2.79 65.86-2.85 65.61-2.61 65.74-2.48 65.92-2.67 65.92-1.76 65.86-1.82 65.61-1.61 65.74-1.45 65.92-1.64 65.92-0.73 65.86-0.82 65.61-0.58 65.74-0.42 65.92-0.61 65.92 0 65.31 0 65.46-0.15 65.34-0.3 65.1-0.06 65.16 0 64.28 0 64.43-0.15 64.31-0.3 64.07-0.06 64.13 0 63.25 0 63.4-0.15 63.28-0.3 63.04-0.06 63.1 0 62.22 0 62.4-0.15 62.25-0.3 62.01-0.06 62.07 0 61.22 0 61.37-0.15 61.22-0.3 60.98-0.06 61.04 0 60.19 0 60.34-0.15 60.22-0.3 59.98-0.06 60.01 0 59.16 0 59.31-0.15 59.19-0.3 58.95-0.06 59.01 0 58.13 0 58.28-0.15 58.16-0.3 57.92-0.06 57.98 0 57.44 0 57.44-0.55 57.53-0.42 57.77-0.67 57.65-0.82 57.44-0.61 57.44-1.58 57.53-1.45 57.77-1.7 57.65-1.82 57.44-1.61 57.44-2.57 57.53-2.48 57.77-2.73 57.65-2.85 57.44-2.64 57.44-3.6 57.53-3.51 57.77-3.76 57.65-3.88 57.44-3.67 57.44-4.24 58.01-4.24 57.92-4.15 58.04-4.03 58.28-4.24 59.04-4.24 58.95-4.15 59.07-4.03 59.31-4.24 59.56-4.24 59.56-16.96 59.5-16.96 57.44-19.02 57.44-19.57 60.04-16.96 60.53-16.96 57.44-20.05 57.44-20.6 61.07-16.96 61.56-16.96 57.44-21.08 57.44-21.2 57.86-21.2 62.1-16.96 62.58-16.96 58.34-21.2 58.89-21.2 63.13-16.96 63.61-16.96 59.37-21.2 59.92-21.2 63.8-17.33 63.8-17.39 64.01-17.6 63.86-17.72 63.8-17.66 63.8-17.78 60.37-21.2 60.92-21.2 63.8-18.33 63.8-18.42 64.01-18.63 63.86-18.75 63.8-18.69 63.8-18.81 61.4-21.2 61.95-21.2 63.8-19.36 63.8-19.45 64.01-19.66 63.86-19.78 63.8-19.72 63.8-19.84 62.43-21.2 62.98-21.2 63.8-20.39 63.8-20.48 64.01-20.66 63.86-20.81 63.8-20.75 63.8-20.87 63.46-21.2 64.25-21.2 64.13-21.08 64.28-20.93 64.52-21.17 64.49-21.2 65.28-21.2 65.16-21.08 65.28-20.93 65.52-21.17 65.52-21.2 66.31-21.2 66.19-21.08 66.31-20.93 66.55-21.17 66.55-21.2 67.34-21.2 67.22-21.08 67.34-20.93 67.61-21.2Q67.77-21.2 67.95-21.19 68.13-21.17 68.31-21.14L68.31-21.14 67.22-20.05 67.34-19.9 68.52-21.11Q68.67-21.08 68.84-21.05 69.01-21.02 69.16-20.96L69.16-20.96 67.22-19.02 67.34-18.9 69.37-20.9 69.92-20.72 67.22-17.99 67.34-17.87 70.13-20.63Q70.37-20.54 70.61-20.39L70.61-20.39 67.22-16.96 66.43-16.96 66.55-17.09 66.43-17.21 66.19-16.96 65.4-16.96 65.52-17.09 65.4-17.21 65.16-16.96 64.4-16.96 64.52-17.09 64.37-17.21 64.13-16.96 64.16-16.96 63.8-16.96 63.8-11.87 64.16-11.87 63.8-11.51 63.8-11.24 64.43-11.87 65.19-11.87 63.8-10.48 63.8-10.21 65.46-11.87 66.22-11.87 63.8-9.45 63.8-9.18 66.49-11.87 67.25-11.87 63.8-8.42 63.8-8.18 67.52-11.87Q68.07-11.91 68.52-12.15L68.52-12.15 64.01-7.63 63.8-7.63 63.8-4.24 64.16-4.24 64.07-4.15 64.19-4.03 64.43-4.24 65.19-4.24 65.1-4.15 65.22-4.03ZM66.95-20.81L66.7-20.57 66.83-20.42 67.07-20.66 66.95-20.81ZM66.95-19.78L66.7-19.54 66.83-19.42 67.07-19.66 66.95-19.78ZM66.95-18.75L66.7-18.51 66.83-18.39 67.07-18.63 66.95-18.75ZM66.95-17.72L66.7-17.48 66.83-17.36 67.07-17.6 66.95-17.72ZM66.43-20.3L66.19-20.05 66.31-19.9 66.55-20.14 66.43-20.3ZM66.43-19.27L66.19-19.02 66.31-18.9 66.55-19.15 66.43-19.27ZM66.43-18.24L66.19-17.99 66.31-17.87 66.55-18.12 66.43-18.24ZM65.92-20.81L65.67-20.57 65.8-20.42 66.04-20.66 65.92-20.81ZM65.92-19.78L65.67-19.54 65.8-19.42 66.04-19.66 65.92-19.78ZM65.92-18.75L65.67-18.51 65.8-18.39 66.04-18.63 65.92-18.75ZM65.92-17.72L65.67-17.48 65.8-17.36 66.04-17.6 65.92-17.72ZM65.4-20.3L65.16-20.05 65.28-19.9 65.52-20.14 65.4-20.3ZM65.4-19.27L65.16-19.02 65.28-18.9 65.52-19.15 65.4-19.27ZM65.4-18.24L65.16-17.99 65.28-17.87 65.52-18.12 65.4-18.24ZM64.89-20.81L64.64-20.57 64.8-20.42 65.01-20.66 64.89-20.81ZM64.89-19.78L64.64-19.54 64.8-19.42 65.01-19.66 64.89-19.78ZM64.89-18.75L64.64-18.51 64.8-18.39 65.01-18.63 64.89-18.75ZM64.89-17.72L64.64-17.48 64.8-17.36 65.01-17.6 64.89-17.72ZM64.37-20.3L64.13-20.05 64.28-19.9 64.52-20.14 64.37-20.3ZM64.37-19.27L64.13-19.02 64.28-18.9 64.52-19.15 64.37-19.27ZM64.37-18.24L64.13-17.99 64.28-17.87 64.52-18.12 64.37-18.24ZM58.04-0.94L58.28-1.18 58.16-1.33 57.92-1.09 58.04-0.94ZM58.04-1.97L58.28-2.21 58.16-2.33 57.92-2.09 58.04-1.97ZM58.04-3L58.28-3.24 58.16-3.36 57.92-3.12 58.04-3ZM58.56-0.42L58.8-0.67 58.68-0.82 58.43-0.58 58.56-0.42ZM58.56-1.45L58.8-1.7 58.68-1.82 58.43-1.61 58.56-1.45ZM58.56-2.48L58.8-2.73 58.68-2.85 58.43-2.61 58.56-2.48ZM58.56-3.51L58.8-3.76 58.68-3.88 58.43-3.64 58.56-3.51ZM59.07-0.94L59.31-1.18 59.19-1.33 58.95-1.09 59.07-0.94ZM59.07-1.97L59.31-2.21 59.19-2.33 58.95-2.09 59.07-1.97ZM59.07-3L59.31-3.24 59.19-3.36 58.95-3.12 59.07-3ZM59.59-0.42L59.83-0.67 59.71-0.82 59.46-0.58 59.59-0.42ZM59.59-1.45L59.83-1.7 59.71-1.82 59.46-1.61 59.59-1.45ZM59.59-2.48L59.83-2.73 59.71-2.85 59.46-2.61 59.59-2.48ZM59.59-3.51L59.83-3.76 59.71-3.88 59.46-3.64 59.59-3.51ZM60.07-4.24L59.98-4.15 60.1-4.03 60.31-4.24 60.07-4.24ZM60.1-0.94L60.34-1.18 60.22-1.33 59.98-1.09 60.1-0.94ZM60.1-1.97L60.34-2.21 60.22-2.33 59.98-2.09 60.1-1.97ZM60.1-3L60.34-3.24 60.22-3.36 59.98-3.12 60.1-3ZM60.62-0.42L60.86-0.67 60.71-0.82 60.49-0.58 60.62-0.42ZM60.62-1.45L60.86-1.7 60.71-1.82 60.49-1.61 60.62-1.45ZM60.62-2.48L60.86-2.73 60.71-2.85 60.49-2.61 60.62-2.48ZM60.62-3.51L60.86-3.76 60.71-3.88 60.49-3.64 60.62-3.51ZM61.07-4.24L60.98-4.15 61.13-4.03 61.34-4.24 61.07-4.24ZM61.13-0.94L61.37-1.18 61.22-1.33 60.98-1.09 61.13-0.94ZM61.13-1.97L61.37-2.21 61.22-2.33 60.98-2.09 61.13-1.97ZM61.13-3L61.37-3.24 61.22-3.36 60.98-3.12 61.13-3ZM61.65-0.42L61.89-0.67 61.74-0.82 61.49-0.58 61.65-0.42ZM61.65-1.45L61.89-1.7 61.74-1.82 61.49-1.61 61.65-1.45ZM61.65-2.48L61.89-2.73 61.74-2.85 61.49-2.61 61.65-2.48ZM61.65-3.51L61.89-3.76 61.74-3.88 61.49-3.64 61.65-3.51ZM62.1-4.24L62.01-4.15 62.16-4.03 62.37-4.24 62.1-4.24ZM62.16-0.94L62.4-1.18 62.25-1.33 62.01-1.09 62.16-0.94ZM62.16-1.97L62.4-2.21 62.25-2.33 62.01-2.09 62.16-1.97ZM62.16-3L62.4-3.24 62.25-3.36 62.01-3.12 62.16-3ZM62.68-0.42L62.92-0.67 62.77-0.82 62.52-0.58 62.68-0.42ZM62.68-1.45L62.92-1.7 62.77-1.82 62.52-1.61 62.68-1.45ZM62.68-2.48L62.92-2.73 62.77-2.85 62.52-2.61 62.68-2.48ZM62.68-3.51L62.92-3.76 62.77-3.88 62.52-3.64 62.68-3.51ZM63.13-4.24L63.04-4.15 63.19-4.03 63.4-4.24 63.13-4.24ZM63.19-0.94L63.4-1.18 63.28-1.33 63.04-1.09 63.19-0.94ZM63.19-1.97L63.4-2.21 63.28-2.33 63.04-2.09 63.19-1.97ZM63.19-3L63.4-3.24 63.28-3.36 63.04-3.12 63.19-3ZM63.68-0.42L63.92-0.67 63.8-0.82 63.55-0.58 63.68-0.42ZM63.68-1.45L63.92-1.7 63.8-1.82 63.55-1.61 63.68-1.45ZM63.68-2.48L63.92-2.73 63.8-2.85 63.55-2.61 63.68-2.48ZM63.68-3.51L63.92-3.76 63.8-3.88 63.55-3.64 63.68-3.51ZM64.19-0.94L64.43-1.18 64.31-1.33 64.07-1.09 64.19-0.94ZM64.19-1.97L64.43-2.21 64.31-2.33 64.07-2.09 64.19-1.97ZM64.19-3L64.43-3.24 64.31-3.36 64.07-3.12 64.19-3ZM64.71-0.42L64.95-0.67 64.83-0.82 64.58-0.58 64.71-0.42ZM64.71-1.45L64.95-1.7 64.83-1.82 64.58-1.61 64.71-1.45ZM64.71-2.48L64.95-2.73 64.83-2.85 64.58-2.61 64.71-2.48ZM64.71-3.51L64.95-3.76 64.83-3.88 64.58-3.64 64.71-3.51ZM65.22-0.94L65.46-1.18 65.34-1.33 65.1-1.09 65.22-0.94ZM65.22-1.97L65.46-2.21 65.34-2.33 65.1-2.09 65.22-1.97ZM65.22-3L65.46-3.24 65.34-3.36 65.1-3.12 65.22-3ZM74.19-14.45L74.19-14.42Q74.19-14.21 74.17-14.03 74.16-13.84 74.16-13.66L74.16-13.66 68.16-7.66Q67.98-7.66 67.8-7.65 67.61-7.63 67.4-7.63L67.4-7.63 67.37-7.63 74.19-14.45ZM58.01-16.96L57.47-16.96 57.44-16.99 57.44-17.54 58.01-16.96ZM59.01-16.96L58.47-16.96 57.44-17.99 57.44-18.54 59.01-16.96ZM90.67-21.2L97.09-21.2 97.09-16.96 94.97-16.96 94.97-16.69 94.7-16.96 94.21-16.96 94.97-16.21 94.97-15.66 93.67-16.96 93.18-16.96 94.97-15.18 94.97-14.63 92.88-16.75 92.7-16.45 94.97-14.15 94.97-13.6 92.48-16.12 92.27-15.81 94.97-13.15 94.97-12.6 92.09-15.48 91.88-15.18 94.97-12.12 94.97-11.57 91.67-14.84 91.48-14.57 94.97-11.09 94.97-10.54 91.27-14.24 91.09-13.93 94.97-10.06 94.97-9.51 90.88-13.6 86.49-6.63 82.18-13.42 78-9.24 78-10 81.91-13.87 81.79-14.06 78-10.24 78-11 81.52-14.51 81.4-14.69 78-11.27 78-12.03 81.12-15.15 81-15.3 78-12.3 78-13.06 80.7-15.78 80.61-15.93 78-13.33 78-14.09 80.31-16.39 80.22-16.57 78-14.36 78-15.12 79.91-17.02 79.82-17.18 78-15.39 78-16.15 79.52-17.66 79.43-17.81 78-16.39 78-16.96 77.82-16.96 79.12-18.3 79.03-18.45 77.55-16.96 76.79-16.96 78.73-18.9 78.64-19.08 76.52-16.96 75.88-16.96 75.88-17.09 78.34-19.54 78.22-19.69 75.88-17.36 75.88-18.12 77.94-20.18 77.82-20.33 75.88-18.39 75.88-19.15 77.55-20.78 77.43-20.96 75.88-19.42 75.88-20.18 76.91-21.2 82.31-21.2 86.49-14.57 90.67-21.2ZM84.37-4.24L84.37-3.76 83.88-4.24 84.37-4.24ZM82.25-5.27L81.22-4.24 81.34-4.24 84.37-1.21 84.37-0.7 80.82-4.24 80.46-4.24 82.25-6.03 82.25-5.27ZM84.37-2.73L82.85-4.24 83.4-4.24 84.37-3.27 84.37-2.73ZM82.25-4.24L82.25-4.24 82.37-4.24 84.37-2.24 84.37-1.7 81.82-4.24 81.49-4.24 82.25-5 82.25-4.24ZM75.88-4.03L75.88-4.24 76.22-4.24 80.46 0 79.91 0 75.88-4.03ZM82.25-8.33L78.16-4.24 78.28-4.24 82.52 0 81.97 0 77.73-4.24 78-4.24 78-4.85 82.25-9.09 82.25-8.33ZM82.25-7.33L79.16-4.24 79.31-4.24 83.55 0 83 0 78.76-4.24 78.4-4.24 82.25-8.09 82.25-7.33ZM78.88 0L75.88-3 75.88-3.54 79.43 0 78.88 0ZM82.25-6.3L80.19-4.24 80.34-4.24 84.37-0.21 84.37 0 84.03 0 79.79-4.24 79.43-4.24 82.25-7.06 82.25-6.3ZM80.94 0L76.7-4.24 77.25-4.24 81.49 0 80.94 0ZM94.97-7.45L90.73-11.69 90.73-12.24 94.97-8 94.97-7.45ZM90.73-13.27L94.97-9.03 94.97-8.48 90.73-12.72 90.73-13.27ZM94.97-6.45L90.73-10.69 90.73-11.24 94.97-7 94.97-6.45ZM76.37 0L75.88 0 75.88-0.48 76.37 0ZM76.85 0L75.88-0.97 75.88-1.51 77.4 0 76.85 0ZM94.97-5.42L90.73-9.66 90.73-10.21 94.97-5.97 94.97-5.42ZM77.88 0L75.88-2 75.88-2.54 78.43 0 77.88 0ZM94.97-4.39L90.73-8.63 90.73-9.18 94.97-4.94 94.97-4.39ZM75.88-21.17L75.91-21.2 76.64-21.2 75.88-20.42 75.88-21.17ZM89.3-4.24L88.61-3.54 88.61-4.24 89.3-4.24ZM97.09-0.76L96.33 0 95.57 0 97.09-1.51 97.09-0.76ZM90.33-4.24L88.61-2.51 88.61-3.27 89.58-4.24 90.33-4.24ZM97.09-0.48L97.09 0 96.6 0 97.09-0.48ZM94.97-2.73L94.97-2.45 96.76-4.24 97.09-4.24 97.09-3.82 94.97-1.7 94.97-1.45 97.09-3.57 97.09-2.82 94.97-0.7 94.97-0.42 97.09-2.54 97.09-1.79 95.3 0 90.45 0 90.82-0.36 90.73-0.42 90.73-0.55 90.18 0 89.42 0 90.82-1.36 90.73-1.45 90.73-1.58 89.15 0 88.61 0 88.61-0.21 90.82-2.39 90.73-2.48 90.73-2.61 88.61-0.48 88.61-1.24 90.82-3.42 90.73-3.51 90.73-3.6 88.61-1.48 88.61-2.24 90.61-4.24 91.03-4.24 90.73-4.54 90.73-5.09 91.58-4.21 91.61-4.24 92.03-4.24 90.73-5.54 90.73-6.09 92.61-4.21 92.64-4.24 93.06-4.24 90.73-6.57 90.73-7.12 93.64-4.21 93.67-4.24 94.09-4.24 90.73-7.6 90.73-8.15 94.67-4.21 94.7-4.24 95.45-4.24 94.97-3.76 94.97-3.48 95.73-4.24 96.48-4.24 94.97-2.73ZM90.94-0.76L91.09-0.64 91.3-0.88 91.18-1 90.94-0.76ZM90.94-1.79L91.09-1.64 91.3-1.88 91.18-2.03 90.94-1.79ZM90.94-2.82L91.09-2.67 91.3-2.91 91.18-3.06 90.94-2.82ZM90.94-3.85L91.09-3.7 91.3-3.94 91.18-4.06 90.94-3.85ZM91.45-0.24L91.58-0.12 91.82-0.36 91.7-0.48 91.45-0.24ZM91.45-1.27L91.58-1.15 91.82-1.36 91.7-1.51 91.45-1.27ZM91.45-2.3L91.58-2.15 91.82-2.39 91.7-2.54 91.45-2.3ZM91.45-3.33L91.58-3.18 91.82-3.42 91.7-3.57 91.45-3.33ZM91.97-0.76L92.09-0.64 92.33-0.88 92.21-1 91.97-0.76ZM91.97-1.79L92.09-1.64 92.33-1.88 92.21-2.03 91.97-1.79ZM91.97-2.82L92.09-2.67 92.33-2.91 92.21-3.06 91.97-2.82ZM91.97-3.85L92.09-3.7 92.33-3.94 92.21-4.06 91.97-3.85ZM92.48-0.24L92.61-0.12 92.85-0.36 92.73-0.48 92.48-0.24ZM92.48-1.27L92.61-1.15 92.85-1.36 92.73-1.51 92.48-1.27ZM92.48-2.3L92.61-2.15 92.85-2.39 92.73-2.54 92.48-2.3ZM92.48-3.33L92.61-3.18 92.85-3.42 92.73-3.57 92.48-3.33ZM93-0.76L93.12-0.64 93.36-0.88 93.24-1 93-0.76ZM93-1.79L93.12-1.64 93.36-1.88 93.24-2.03 93-1.79ZM93-2.82L93.12-2.67 93.36-2.91 93.24-3.06 93-2.82ZM93-3.85L93.12-3.7 93.36-3.94 93.24-4.06 93-3.85ZM93.51-0.24L93.64-0.12 93.88-0.36 93.76-0.48 93.51-0.24ZM93.51-1.27L93.64-1.15 93.88-1.36 93.76-1.51 93.51-1.27ZM93.51-2.3L93.64-2.15 93.88-2.39 93.76-2.54 93.51-2.3ZM93.51-3.33L93.64-3.18 93.88-3.42 93.76-3.57 93.51-3.33ZM94.03-0.76L94.15-0.64 94.39-0.88 94.27-1 94.03-0.76ZM94.03-1.79L94.15-1.64 94.39-1.88 94.27-2.03 94.03-1.79ZM94.03-2.82L94.15-2.67 94.39-2.91 94.27-3.06 94.03-2.82ZM94.03-3.85L94.15-3.7 94.39-3.94 94.27-4.06 94.03-3.85ZM94.54-0.24L94.67-0.12 94.91-0.36 94.76-0.48 94.54-0.24ZM94.54-1.27L94.67-1.15 94.91-1.36 94.76-1.51 94.54-1.27ZM94.54-2.3L94.67-2.15 94.91-2.39 94.76-2.54 94.54-2.3ZM94.54-3.33L94.67-3.18 94.91-3.42 94.76-3.57 94.54-3.33ZM78-8.97L82.25-13.21 82.25-12.45 78-8.21 78-8.97ZM82.25-9.36L78-5.12 78-5.88 82.25-10.12 82.25-9.36ZM82.25-11.42L78-7.18 78-7.94 82.25-12.18 82.25-11.42ZM82.25-10.39L78-6.15 78-6.91 82.25-11.15 82.25-10.39ZM117.93 0L117.17 0 119.75-2.57 119.75-1.82 117.93 0ZM118.96 0L118.2 0 119.75-1.54 119.75-0.79 118.96 0ZM116.9 0L116.14 0 119.75-3.6 119.75-2.85 116.9 0ZM119.35-4.24L119.75-4.24 119.75-3.88 115.87 0 115.11 0 119.35-4.24ZM119.75 0L119.23 0 119.75-0.51 119.75 0ZM111.27-2.54L111.27-3.3 112.17-4.24 112.93-4.24 111.27-2.54ZM117.69-4.24L118.08-4.24 113.84 0 113.08 0 117.32-4.24 117.05-4.24 112.81 0 112.05 0 116.29-4.24 116.02-4.24 111.78 0 111.27 0 111.27-0.24 115.26-4.24 114.99-4.24 111.27-0.51 111.27-1.27 114.23-4.24 113.96-4.24 111.27-1.54 111.27-2.3 113.2-4.24 113.26-4.24 112.57-6.6 112.33-6.36 111.57-6.36 112.39-7.18 112.33-7.39 111.3-6.36 110.54-6.36 112.14-7.97 112.08-8.18 110.27-6.36 109.51-6.36 111.9-8.75 111.84-8.97 109.24-6.36 108.48-6.36 111.69-9.54 111.63-9.75 108.24-6.36 107.48-6.36 111.45-10.33 111.39-10.54 107.21-6.36 106.45-6.36 110.69-10.6 111.36-10.6 109.45-16.96 109.27-16.96 107.24-10.24 107.6-10.6 108.36-10.6 106.9-9.15 106.81-8.75 108.63-10.6 109.39-10.6 106.48-7.69 106.36-7.3 109.66-10.6 110.42-10.6 106.18-6.36 106.09-6.36 105.45-4.24 105.78-4.24 105.57-4.06 105.72-3.91 105.96-4.15 105.87-4.24 106.78-4.24 106.6-4.06 106.75-3.91 106.99-4.15 106.9-4.24 107.45-4.24 107.45-3.7 107.36-3.79 107.12-3.54 107.27-3.39 107.45-3.6 107.45-2.67 107.36-2.76 107.12-2.51 107.27-2.39 107.45-2.57 107.45-1.64 107.36-1.73 107.12-1.48 107.27-1.36 107.45-1.54 107.45-0.64 107.36-0.7 107.12-0.45 107.27-0.33 107.45-0.51 107.45 0 106.93 0 106.99-0.06 106.84-0.18 106.66 0 105.9 0 105.96-0.06 105.81-0.18 105.63 0 104.87 0 104.93-0.06 104.81-0.18 104.6 0 103.84 0 103.9-0.06 103.78-0.18 103.57 0 102.81 0 102.87-0.06 102.75-0.18 102.54 0 101.78 0 101.84-0.06 101.72-0.18 101.54 0 100.78 0 100.84-0.06 100.69-0.18 100.51 0 99.75 0 99.81-0.06 99.66-0.18 99.48 0 98.97 0 98.97-0.42 99.06-0.33 99.3-0.58 99.15-0.7 98.97-0.51 98.97-1.45 99.06-1.36 99.3-1.61 99.15-1.73 98.97-1.54 98.97-2.48 99.06-2.39 99.3-2.64 99.15-2.76 98.97-2.54 98.97-3.51 99.06-3.39 99.3-3.64 99.15-3.79 98.97-3.57 98.97-4.24 99.63-4.24 99.42-4.06 99.57-3.91 99.81-4.15 99.72-4.24 100.63-4.24 100.45-4.06 100.6-3.91 100.84-4.15 100.75-4.24 101.03-4.24 106.12-21.2 112.6-21.2 117.69-4.24ZM99.57-0.85L99.81-1.09 99.66-1.21 99.42-0.97 99.57-0.85ZM99.57-1.88L99.81-2.12 99.66-2.24 99.42-2 99.57-1.88ZM99.57-2.91L99.81-3.12 99.66-3.27 99.42-3.03 99.57-2.91ZM100.09-0.33L100.33-0.58 100.18-0.7 99.94-0.45 100.09-0.33ZM100.09-1.36L100.33-1.61 100.18-1.73 99.94-1.48 100.09-1.36ZM100.09-2.39L100.33-2.64 100.18-2.76 99.94-2.51 100.09-2.39ZM100.09-3.39L100.33-3.64 100.18-3.79 99.94-3.54 100.09-3.39ZM100.6-0.85L100.84-1.09 100.69-1.21 100.45-0.97 100.6-0.85ZM100.6-1.88L100.84-2.12 100.69-2.24 100.45-2 100.6-1.88ZM100.6-2.91L100.84-3.12 100.69-3.27 100.45-3.03 100.6-2.91ZM101.12-0.33L101.36-0.58 101.21-0.7 100.97-0.45 101.12-0.33ZM101.12-1.36L101.36-1.61 101.21-1.73 100.97-1.48 101.12-1.36ZM101.12-2.39L101.36-2.64 101.21-2.76 100.97-2.51 101.12-2.39ZM101.12-3.39L101.36-3.64 101.21-3.79 100.97-3.54 101.12-3.39ZM101.63-0.85L101.84-1.09 101.72-1.21 101.48-0.97 101.63-0.85ZM101.63-1.88L101.84-2.12 101.72-2.24 101.48-2 101.63-1.88ZM101.63-2.91L101.84-3.12 101.72-3.27 101.48-3.03 101.63-2.91ZM101.63-3.91L101.84-4.15 101.78-4.24 101.66-4.24 101.48-4.06 101.63-3.91ZM102.12-0.33L102.36-0.58 102.24-0.7 102-0.45 102.12-0.33ZM102.12-1.36L102.36-1.61 102.24-1.73 102-1.48 102.12-1.36ZM102.12-2.39L102.36-2.64 102.24-2.76 102-2.51 102.12-2.39ZM102.12-3.39L102.36-3.64 102.24-3.79 102-3.54 102.12-3.39ZM102.63-0.85L102.87-1.09 102.75-1.21 102.51-0.97 102.63-0.85ZM102.63-1.88L102.87-2.12 102.75-2.24 102.51-2 102.63-1.88ZM102.63-2.91L102.87-3.12 102.75-3.27 102.51-3.03 102.63-2.91ZM102.63-3.91L102.87-4.15 102.81-4.24 102.69-4.24 102.51-4.06 102.63-3.91ZM106.84-3.27L106.6-3.03 106.75-2.91 106.99-3.12 106.84-3.27ZM106.84-2.24L106.6-2 106.75-1.88 106.99-2.12 106.84-2.24ZM106.84-1.21L106.6-0.97 106.75-0.85 106.99-1.09 106.84-1.21ZM106.33-3.79L106.09-3.54 106.24-3.39 106.48-3.64 106.33-3.79ZM106.33-2.76L106.09-2.51 106.24-2.39 106.48-2.64 106.33-2.76ZM106.33-1.73L106.09-1.48 106.24-1.36 106.48-1.61 106.33-1.73ZM106.33-0.7L106.09-0.45 106.24-0.33 106.48-0.58 106.33-0.7ZM103.15-0.33L103.39-0.58 103.27-0.7 103.03-0.45 103.15-0.33ZM103.15-1.36L103.39-1.61 103.27-1.73 103.03-1.48 103.15-1.36ZM103.15-2.39L103.39-2.64 103.27-2.76 103.03-2.51 103.15-2.39ZM103.15-3.39L103.39-3.64 103.27-3.79 103.03-3.54 103.15-3.39ZM103.66-0.85L103.9-1.09 103.78-1.21 103.54-0.97 103.66-0.85ZM103.66-1.88L103.9-2.12 103.78-2.24 103.54-2 103.66-1.88ZM103.66-2.91L103.9-3.12 103.78-3.27 103.54-3.03 103.66-2.91ZM103.66-3.91L103.9-4.15 103.84-4.24 103.72-4.24 103.54-4.06 103.66-3.91ZM104.18-0.33L104.42-0.58 104.3-0.7 104.06-0.45 104.18-0.33ZM104.18-1.36L104.42-1.61 104.3-1.73 104.06-1.48 104.18-1.36ZM104.18-2.39L104.42-2.64 104.3-2.76 104.06-2.51 104.18-2.39ZM104.18-3.39L104.42-3.64 104.3-3.79 104.06-3.54 104.18-3.39ZM104.69-0.85L104.93-1.09 104.81-1.21 104.57-0.97 104.69-0.85ZM104.69-1.88L104.93-2.12 104.81-2.24 104.57-2 104.69-1.88ZM104.69-2.91L104.93-3.12 104.81-3.27 104.57-3.03 104.69-2.91ZM104.69-3.91L104.93-4.15 104.84-4.24 104.75-4.24 104.57-4.06 104.69-3.91ZM105.21-0.33L105.45-0.58 105.3-0.7 105.09-0.45 105.21-0.33ZM105.21-1.36L105.45-1.61 105.3-1.73 105.09-1.48 105.21-1.36ZM105.21-2.39L105.45-2.64 105.3-2.76 105.09-2.51 105.21-2.39ZM105.81-3.27L105.57-3.03 105.72-2.91 105.96-3.12 105.81-3.27ZM105.81-2.24L105.57-2 105.72-1.88 105.96-2.12 105.81-2.24ZM105.81-1.21L105.57-0.97 105.72-0.85 105.96-1.09 105.81-1.21ZM105.45-3.64L105.3-3.79 105.09-3.54 105.21-3.39 105.45-3.64ZM111.27-3.57L111.27-4.24 111.93-4.24 111.27-3.57ZM118.35-4.24L119.08-4.24 114.84 0 114.11 0 118.35-4.24ZM138.65-4.24L140.5-4.24 140.5 0 132.02 0 132.02-4.24 133.74-4.24 133.56-4.57 136.68-7.69 136.95-7.21 133.99-4.24 134.26-4.24 137.04-7.03 137.32-6.54 135.02-4.24 135.29-4.24 137.41-6.39 137.71-5.91 136.05-4.24 136.32-4.24 137.8-5.73 138.07-5.24 137.08-4.24 137.35-4.24 138.17-5.09 138.44-4.6 138.11-4.24 138.35-4.24 138.53-4.42 138.65-4.24ZM121.63-0.94L121.63-1.48 123.11 0 122.56 0 121.63-0.94ZM121.63 0L121.63-0.45 122.08 0 121.63 0ZM128.56-4.24L129.11-4.24 130.11-3.24 130.11-2.7 128.56-4.24ZM123.08-16.96L122.53-16.96 121.63-17.87 121.63-18.42 123.08-16.96ZM121.63-17.39L122.05-16.96 121.63-16.96 121.63-17.39ZM130.11-3.73L129.59-4.24 130.11-4.24 130.11-3.73ZM132.29-7.66L131.99-7.36 131.8-7.63 131.68-7.63 127.99-7.63 127.99-7.45 124.78-4.24 125.02-4.24 127.99-7.21 127.99-6.45 125.78-4.24 126.05-4.24 127.99-6.18 127.99-5.42 126.81-4.24 127.08-4.24 127.99-5.15 127.99-4.39 127.84-4.24 128.11-4.24 130.11-2.24 130.11-1.7 127.99-3.82 127.99-3.36 127.96-3.33 130.11-1.21 130.11-0.67 127.99-2.79 127.99-2.33 127.96-2.33 130.11-0.18 130.11 0 129.74 0 127.99-1.76 127.99-1.3 127.96-1.3 129.26 0 128.71 0 127.99-0.73 127.99-0.3 127.96-0.27 128.23 0 123.59 0 121.63-1.97 121.63-2.51 123.75-0.39 123.75-0.88 121.63-3 121.63-3.54 123.75-1.42 123.75-1.91 121.63-4.03 121.63-4.24 121.96-4.24 123.75-2.45 123.75-2.91 122.41-4.24 122.96-4.24 123.75-3.45 123.75-3.94 123.44-4.24 123.99-4.24 127.41-7.63 127.14-7.63 123.75-4.24 123.75-5 126.38-7.63 126.11-7.63 123.75-5.27 123.75-6.03 125.35-7.63 125.08-7.63 123.75-6.3 123.75-7.06 124.32-7.63 124.05-7.63 123.75-7.33 123.75-12.18 127.99-16.42 127.99-15.66 124.2-11.87 124.47-11.87 127.99-15.39 127.99-14.63 125.23-11.87 125.5-11.87 127.99-14.36 127.99-13.6 126.26-11.87 126.5-11.87 127.99-13.36 127.99-12.6 127.26-11.87 127.53-11.87 127.99-12.33 127.99-11.87 131.59-11.87Q132.65-11.87 133.39-12.62 134.14-13.36 134.14-14.42L134.14-14.42Q134.14-15.48 133.39-16.22 132.65-16.96 131.59-16.96L131.59-16.96 131.59-17.15 127.96-20.78 127.71-20.54 127.87-20.39 127.99-20.51 127.99-20.27 131.29-16.96 130.74-16.96 127.96-19.75 127.71-19.51 127.87-19.36 127.99-19.51 127.99-19.24 130.26-16.96 129.71-16.96 127.96-18.72 127.71-18.48 127.87-18.36 127.99-18.48 127.99-18.21 129.23-16.96 128.68-16.96 127.96-17.69 127.71-17.45 127.87-17.33 127.99-17.45 127.99-17.18 128.2-16.96 127.99-16.96 127.99-16.69 123.75-12.45 123.75-13.21 127.59-17.05 127.44-17.18 123.75-13.48 123.75-14.24 126.56-17.05 126.44-17.18 123.75-14.51 123.75-15.27 125.53-17.05 125.41-17.18 123.75-15.51 123.75-16.27 124.5-17.05 124.38-17.18 123.75-16.54 123.75-16.96 123.56-16.96 121.63-18.9 121.63-19.45 123.75-17.33 123.99-17.57 123.87-17.69 123.75-17.57 123.75-17.81 121.63-19.93 121.63-20.48 123.75-18.36 123.99-18.57 123.87-18.72 123.75-18.6 123.75-18.84 121.63-20.96 121.63-21.2 121.93-21.2 123.75-19.36 123.99-19.6 123.87-19.75 123.75-19.63 123.75-19.87 122.41-21.2 122.96-21.2 123.75-20.39 123.99-20.63 123.87-20.78 123.75-20.66 123.75-20.9 123.44-21.2 124.29-21.2 124.14-21.05 124.26-20.9 124.5-21.14 124.44-21.2 125.32-21.2 125.17-21.05 125.29-20.9 125.53-21.14 125.47-21.2 126.35-21.2 126.2-21.05 126.32-20.9 126.56-21.14 126.5-21.2 127.38-21.2 127.2-21.05 127.35-20.9 127.59-21.14 127.53-21.2 128.08-21.2 131.59-17.69 131.59-18.18 128.56-21.2 129.11-21.2 131.59-18.72 131.59-19.21 129.59-21.2 130.14-21.2 131.59-19.75 131.59-20.21 130.59-21.2 131.14-21.2 131.59-20.75 131.59-21.2Q132.99-21.2 134.23-20.67 135.47-20.14 136.39-19.22 137.32-18.3 137.85-17.05 138.38-15.81 138.38-14.42L138.38-14.42Q138.38-12.75 137.65-11.34 136.92-9.94 135.68-9.03L135.68-9.03 132.71-6.06 132.44-6.51 133.99-8.09Q133.77-7.97 133.59-7.94L133.59-7.94 132.35-6.69 132.08-7.18 132.59-7.72Q132.53-7.69 132.46-7.69 132.38-7.69 132.29-7.66L132.29-7.66ZM124.26-17.84L124.5-18.08 124.38-18.21 124.14-17.96 124.26-17.84ZM124.26-18.84L124.5-19.08 124.38-19.24 124.14-18.99 124.26-18.84ZM124.26-19.87L124.5-20.11 124.38-20.27 124.14-20.02 124.26-19.87ZM124.78-17.33L125.02-17.57 124.9-17.69 124.65-17.45 124.78-17.33ZM124.78-18.36L125.02-18.57 124.9-18.72 124.65-18.48 124.78-18.36ZM124.78-19.36L125.02-19.6 124.9-19.75 124.65-19.51 124.78-19.36ZM124.78-20.39L125.02-20.63 124.9-20.78 124.65-20.54 124.78-20.39ZM125.29-17.84L125.53-18.08 125.41-18.21 125.17-17.96 125.29-17.84ZM125.29-18.84L125.53-19.08 125.41-19.24 125.17-18.99 125.29-18.84ZM125.29-19.87L125.53-20.11 125.41-20.27 125.17-20.02 125.29-19.87ZM125.81-17.33L126.05-17.57 125.93-17.69 125.68-17.45 125.81-17.33ZM125.81-18.36L126.05-18.57 125.93-18.72 125.68-18.48 125.81-18.36ZM125.81-19.36L126.05-19.6 125.93-19.75 125.68-19.51 125.81-19.36ZM125.81-20.39L126.05-20.63 125.93-20.78 125.68-20.54 125.81-20.39ZM126.32-17.84L126.56-18.08 126.44-18.21 126.2-17.96 126.32-17.84ZM126.32-18.84L126.56-19.08 126.44-19.24 126.2-18.99 126.32-18.84ZM126.32-19.87L126.56-20.11 126.44-20.27 126.2-20.02 126.32-19.87ZM126.84-17.33L127.08-17.57 126.93-17.69 126.71-17.45 126.84-17.33ZM126.84-18.36L127.08-18.57 126.93-18.72 126.71-18.48 126.84-18.36ZM126.84-19.36L127.08-19.6 126.93-19.75 126.71-19.51 126.84-19.36ZM126.84-20.39L127.08-20.63 126.93-20.78 126.71-20.54 126.84-20.39ZM127.35-17.84L127.59-18.08 127.44-18.21 127.2-17.96 127.35-17.84ZM127.35-18.84L127.59-19.08 127.44-19.24 127.2-18.99 127.35-18.84ZM127.35-19.87L127.59-20.11 127.44-20.27 127.2-20.02 127.35-19.87ZM127.68-4.09L127.44-3.85 127.59-3.73 127.84-3.97 127.68-4.09ZM127.68-3.06L127.44-2.82 127.59-2.7 127.84-2.94 127.68-3.06ZM127.68-2.06L127.44-1.82 127.59-1.67 127.84-1.91 127.68-2.06ZM127.68-1.03L127.44-0.79 127.59-0.64 127.84-0.88 127.68-1.03ZM127.17-3.57L126.96-3.33 127.08-3.21 127.32-3.45 127.17-3.57ZM127.17-2.57L126.96-2.33 127.08-2.18 127.32-2.42 127.17-2.57ZM127.17-1.54L126.96-1.3 127.08-1.15 127.32-1.39 127.17-1.54ZM127.17-0.51L126.96-0.27 127.08-0.12 127.32-0.36 127.17-0.51ZM126.68-4.09L126.44-3.85 126.56-3.73 126.81-3.97 126.68-4.09ZM126.68-3.06L126.44-2.82 126.56-2.7 126.81-2.94 126.68-3.06ZM126.68-2.06L126.44-1.82 126.56-1.67 126.81-1.91 126.68-2.06ZM126.68-1.03L126.44-0.79 126.56-0.64 126.81-0.88 126.68-1.03ZM126.17-3.57L125.93-3.33 126.05-3.21 126.29-3.45 126.17-3.57ZM126.17-2.57L125.93-2.33 126.05-2.18 126.29-2.42 126.17-2.57ZM126.17-1.54L125.93-1.3 126.05-1.15 126.29-1.39 126.17-1.54ZM126.17-0.51L125.93-0.27 126.05-0.12 126.29-0.36 126.17-0.51ZM125.65-4.09L125.41-3.85 125.53-3.73 125.78-3.97 125.65-4.09ZM125.65-3.06L125.41-2.82 125.53-2.7 125.78-2.94 125.65-3.06ZM125.65-2.06L125.41-1.82 125.53-1.67 125.78-1.91 125.65-2.06ZM125.65-1.03L125.41-0.79 125.53-0.64 125.78-0.88 125.65-1.03ZM125.14-3.57L124.9-3.33 125.02-3.21 125.26-3.45 125.14-3.57ZM125.14-2.57L124.9-2.33 125.02-2.18 125.26-2.42 125.14-2.57ZM125.14-1.54L124.9-1.3 125.02-1.15 125.26-1.39 125.14-1.54ZM125.14-0.51L124.9-0.27 125.02-0.12 125.26-0.36 125.14-0.51ZM123.99-0.12L124.23-0.36 124.11-0.51 123.87-0.27 123.99-0.12ZM123.99-1.15L124.23-1.39 124.11-1.54 123.87-1.3 123.99-1.15ZM123.99-2.18L124.23-2.42 124.11-2.57 123.87-2.33 123.99-2.18ZM123.99-3.21L124.23-3.45 124.11-3.57 123.87-3.33 123.99-3.21ZM124.5-0.64L124.75-0.88 124.62-1.03 124.38-0.79 124.5-0.64ZM124.5-1.67L124.75-1.91 124.62-2.06 124.38-1.82 124.5-1.67ZM124.5-2.7L124.75-2.94 124.62-3.06 124.38-2.82 124.5-2.7ZM124.5-3.73L124.75-3.97 124.62-4.09 124.38-3.85 124.5-3.73ZM132.29-7.66L132.23-7.66 132.29-7.66ZM132.8-5.88L135.92-9 136.2-8.51 133.11-5.39 132.8-5.88ZM136.56-7.85L133.47-4.76 133.2-5.21 136.29-8.33 136.56-7.85ZM146.77-10.3L146.77-10.84 151.01-6.6 151.01-6.06 146.77-10.3ZM146.77-11.3L146.77-11.84 151.01-7.6 151.01-7.06 146.77-11.3ZM146.77-9.27L146.77-9.81 151.01-5.57 151.01-5.03 146.77-9.27ZM146.77-13.36L146.77-13.9 151.01-9.66 151.01-9.12 146.77-13.36ZM146.77-12.33L146.77-12.87 151.01-8.63 151.01-8.09 146.77-12.33ZM146.77-14.39L146.77-14.93 151.01-10.69 151.01-10.15 146.77-14.39ZM151.01-11.72L151.01-11.18 146.77-15.42 146.77-15.96 151.01-11.72ZM153.13 0L152.49 0 153.13-0.64 153.13 0ZM152.22 0L151.46 0 153.13-1.67 153.13-0.91 152.22 0ZM144.65-3.7L144.65-4.24 145.19-4.24 144.65-3.7ZM150.95-2.54L152.62-4.24 153.13-4.24 153.13-4 150.8-1.67 150.95-1.54 153.13-3.73 153.13-2.97 150.8-0.64 150.95-0.51 153.13-2.7 153.13-1.94 151.19 0 150.43 0 150.68-0.24 150.53-0.36 150.28-0.12 150.43 0 149.4 0 149.65-0.24 149.5-0.36 149.28-0.12 149.4 0 148.37 0 148.62-0.24 148.5-0.36 148.25-0.12 148.37 0 147.34 0 147.59-0.24 147.47-0.36 147.22-0.12 147.34 0 146.34 0 146.77-0.42 146.77-0.58 146.83-0.51 147.07-0.76 146.95-0.88 146.07 0 145.31 0 146.77-1.45 146.77-1.61 146.83-1.54 147.07-1.79 146.95-1.91 145.04 0 144.65 0 144.65-0.36 146.77-2.48 146.77-2.64 146.83-2.54 147.07-2.79 146.95-2.94 144.65-0.64 144.65-1.39 146.77-3.51 146.77-3.67 146.83-3.57 147.07-3.82 146.95-3.97 144.65-1.67 144.65-2.42 146.47-4.24 146.77-4.24 146.77-4.7 147.22-4.24 147.22-4.24 147.22-4.24 147.34-4.09 147.5-4.24 147.68-4.24 146.77-5.15 146.77-5.7 148.22-4.24 148.25-4.24 148.25-4.24 148.37-4.09 148.53-4.24 148.71-4.24 146.77-6.18 146.77-6.73 149.25-4.24 149.28-4.24 149.28-4.24 149.4-4.09 149.56-4.24 149.74-4.24 146.77-7.21 146.77-7.75 150.28-4.24 150.31-4.24 150.28-4.24 150.43-4.09 150.59-4.24 150.77-4.24 146.77-8.24 146.77-8.78 151.01-4.54 151.01-4.24 151.34-4.24 150.8-3.73 150.95-3.57 151.59-4.24 152.34-4.24 150.8-2.7 150.95-2.54ZM147.34-1.03L147.59-1.27 147.47-1.39 147.22-1.15 147.34-1.03ZM147.34-2.06L147.59-2.27 147.47-2.42 147.22-2.18 147.34-2.06ZM147.34-3.06L147.59-3.3 147.47-3.45 147.22-3.21 147.34-3.06ZM147.86-0.51L148.1-0.76 147.98-0.88 147.74-0.64 147.86-0.51ZM147.86-1.54L148.1-1.79 147.98-1.91 147.74-1.67 147.86-1.54ZM147.86-2.54L148.1-2.79 147.98-2.94 147.74-2.7 147.86-2.54ZM147.86-3.57L148.1-3.82 147.98-3.97 147.74-3.73 147.86-3.57ZM148.37-1.03L148.62-1.27 148.5-1.39 148.25-1.15 148.37-1.03ZM148.37-2.06L148.62-2.27 148.5-2.42 148.25-2.18 148.37-2.06ZM148.37-3.06L148.62-3.3 148.5-3.45 148.25-3.21 148.37-3.06ZM148.89-0.51L149.13-0.76 149.01-0.88 148.77-0.64 148.89-0.51ZM148.89-1.54L149.13-1.79 149.01-1.91 148.77-1.67 148.89-1.54ZM148.89-2.54L149.13-2.79 149.01-2.94 148.77-2.7 148.89-2.54ZM148.89-3.57L149.13-3.82 149.01-3.97 148.77-3.73 148.89-3.57ZM149.4-1.03L149.65-1.27 149.5-1.39 149.28-1.15 149.4-1.03ZM149.4-2.06L149.65-2.27 149.5-2.42 149.28-2.18 149.4-2.06ZM149.4-3.06L149.65-3.3 149.5-3.45 149.28-3.21 149.4-3.06ZM149.92-0.51L150.16-0.76 150.01-0.88 149.77-0.64 149.92-0.51ZM149.92-1.54L150.16-1.79 150.01-1.91 149.77-1.67 149.92-1.54ZM149.92-2.54L150.16-2.79 150.01-2.94 149.77-2.7 149.92-2.54ZM149.92-3.57L150.16-3.82 150.01-3.97 149.77-3.73 149.92-3.57ZM150.43-1.03L150.68-1.27 150.53-1.39 150.28-1.15 150.43-1.03ZM150.43-2.06L150.68-2.27 150.53-2.42 150.28-2.18 150.43-2.06ZM150.43-3.06L150.68-3.3 150.53-3.45 150.28-3.21 150.43-3.06ZM144.65-2.7L144.65-3.45 145.44-4.24 146.19-4.24 144.65-2.7ZM152.86-21.2L157.37-21.2 157.37-14.84 153.13-14.84 153.13-16.96 152.74-16.96 153.13-17.36 153.13-17.63 152.46-16.96 151.71-16.96 153.13-18.39 153.13-18.66 151.43-16.96 150.89-16.96 151.01-16.84 151.01-16.3 150.34-16.96 149.86-16.96 151.01-15.81 151.01-15.27 149.31-16.96 148.83-16.96 151.01-14.78 151.01-14.24 148.28-16.96 147.8-16.96 151.01-13.75 151.01-13.21 147.25-16.96 146.8-16.96 151.01-12.75 151.01-12.21 146.77-16.45 146.77-16.96 144.65-16.96 144.65-14.84 140.41-14.84 140.41-21.2 147.68-21.2 147.71-21.17 147.74-21.2 148.71-21.2 148.74-21.17 148.77-21.2 149.71-21.2 149.77-21.17 149.8-21.2 150.74-21.2 150.77-21.17 150.83-21.2 151.59-21.2 151.01-20.63 151.01-20.39 150.89-20.51 150.65-20.27 150.77-20.14 151.83-21.2 152.58-21.2 151.01-19.63 151.01-19.36 150.89-19.51 150.65-19.27 150.77-19.11 152.86-21.2ZM146.77-17.15L146.92-17.3 146.8-17.45 146.77-17.42 146.77-17.15ZM146.77-18.18L146.92-18.33 146.8-18.48 146.77-18.45 146.77-18.18ZM146.77-19.21L146.92-19.36 146.8-19.51 146.77-19.48 146.77-19.21ZM146.77-20.24L146.92-20.39 146.8-20.51 146.77-20.51 146.77-20.24ZM147.19-17.57L147.44-17.81 147.31-17.96 147.07-17.72 147.19-17.57ZM147.19-18.6L147.44-18.84 147.31-18.99 147.07-18.75 147.19-18.6ZM147.19-19.63L147.44-19.87 147.31-19.99 147.07-19.75 147.19-19.63ZM147.19-20.66L147.44-20.9 147.31-21.02 147.07-20.78 147.19-20.66ZM147.71-17.05L147.95-17.3 147.8-17.45 147.59-17.21 147.71-17.05ZM147.71-18.08L147.95-18.33 147.8-18.48 147.59-18.24 147.71-18.08ZM147.71-19.11L147.95-19.36 147.8-19.51 147.59-19.27 147.71-19.11ZM147.71-20.14L147.95-20.39 147.8-20.51 147.59-20.27 147.71-20.14ZM148.22-17.57L148.47-17.81 148.31-17.96 148.07-17.72 148.22-17.57ZM148.22-18.6L148.47-18.84 148.31-18.99 148.07-18.75 148.22-18.6ZM148.22-19.63L148.47-19.87 148.31-19.99 148.07-19.75 148.22-19.63ZM148.22-20.66L148.47-20.9 148.31-21.02 148.07-20.78 148.22-20.66ZM148.74-17.05L148.98-17.3 148.83-17.45 148.59-17.21 148.74-17.05ZM148.74-18.08L148.98-18.33 148.83-18.48 148.59-18.24 148.74-18.08ZM148.74-19.11L148.98-19.36 148.83-19.51 148.59-19.27 148.74-19.11ZM148.74-20.14L148.98-20.39 148.83-20.51 148.59-20.27 148.74-20.14ZM149.25-17.57L149.5-17.81 149.34-17.96 149.1-17.72 149.25-17.57ZM149.25-18.6L149.5-18.84 149.34-18.99 149.1-18.75 149.25-18.6ZM149.25-19.63L149.5-19.87 149.34-19.99 149.1-19.75 149.25-19.63ZM149.25-20.66L149.5-20.9 149.34-21.02 149.1-20.78 149.25-20.66ZM149.77-17.05L150.01-17.3 149.86-17.45 149.62-17.21 149.77-17.05ZM149.77-18.08L150.01-18.33 149.86-18.48 149.62-18.24 149.77-18.08ZM149.77-19.11L150.01-19.36 149.86-19.51 149.62-19.27 149.77-19.11ZM149.77-20.14L150.01-20.39 149.86-20.51 149.62-20.27 149.77-20.14ZM150.28-17.57L150.49-17.81 150.37-17.96 150.13-17.72 150.28-17.57ZM150.28-18.6L150.49-18.84 150.37-18.99 150.13-18.75 150.28-18.6ZM150.28-19.63L150.49-19.87 150.37-19.99 150.13-19.75 150.28-19.63ZM150.28-20.66L150.49-20.9 150.37-21.02 150.13-20.78 150.28-20.66ZM153.13-19.42L153.13-19.69 151.01-17.57 151.01-17.33 150.89-17.45 150.65-17.21 150.77-17.05 153.13-19.42ZM153.13-20.45L153.13-20.72 151.01-18.6 151.01-18.36 150.89-18.48 150.65-18.24 150.77-18.08 153.13-20.45ZM171.4-10.48L176.36-4.24 176.24-4.24 172 0 171.25 0 175.49-4.24 175.21-4.24 170.97 0 170.22 0 174.46-4.24 174.18-4.24 169.94 0 169.64 0 169.64-0.45 173.43-4.24 173.18-4.24 169.64-0.7 169.64-1.45 172.43-4.24 172.15-4.24 169.64-1.73 169.64-2.48 171.4-4.24 171.12-4.24 169.64-2.76 169.64-3.51 170.37-4.24 170.94-4.24 168.67-7.09 168.55-6.94 165.52-9.94 165.76-10.24 167.76-8.27 160.82-16.96 160.98-16.96 165.22-21.2 165.97-21.2 161.73-16.96 161.98-16.96 166.22-21.2 166.97-21.2 162.73-16.96 163.01-16.96 167.25-21.2 167.73-21.2 167.73-20.93 163.76-16.96 164.04-16.96 167.73-20.66 167.73-19.9 164.79-16.96 165.07-16.96 167.73-19.63 167.73-18.87 165.82-16.96 166.1-16.96 167.73-18.6 167.73-17.84 166.85-16.96 166.25-16.96 170.34-11.84 171.52-10.66 171.4-10.48ZM159.25-20.39L160.07-21.2 160.82-21.2 159.25-19.63 159.25-20.39ZM163.16-21.2L163.91-21.2 159.67-16.96 159.25-16.96 159.25-17.3 163.16-21.2ZM159.25-20.63L159.25-21.2 159.79-21.2 159.25-20.63ZM159.25-19.36L161.1-21.2 161.85-21.2 159.25-18.6 159.25-19.36ZM159.25-18.33L162.13-21.2 162.88-21.2 159.25-17.57 159.25-18.33ZM169.64-20.3L170.55-21.2 171.31-21.2 169.64-19.54 169.64-20.3ZM164.94-21.2L160.7-16.96 159.95-16.96 164.19-21.2 164.94-21.2ZM169.64-20.57L169.64-21.2 170.28-21.2 169.64-20.57ZM169.64-19.27L171.58-21.2 172.34-21.2 169.64-18.51 169.64-19.27ZM169.64-18.27L172.58-21.2 173.34-21.2 169.64-17.51 169.64-18.27ZM173.61-21.2L174.37-21.2 170.12-16.96 169.64-16.96 169.64-17.24 173.61-21.2ZM172.28 0L176.52-4.24 177.27-4.24 173.03 0 172.28 0ZM167.13-16.96L167.73-17.57 167.73-16.96 167.13-16.96ZM178.12-1L177.12 0 176.36 0 178.12-1.76 178.12-1ZM170.09-4.24L169.64-3.79 169.64-4.24 170.09-4.24ZM178.12-0.73L178.12 0 177.39 0 178.12-0.73ZM178.12-2L176.09 0 175.37 0 178.12-2.76 178.12-2ZM178.12-3.03L175.09 0 174.34 0 178.12-3.79 178.12-3.03ZM178.12-17.78L177.3-16.96 176.55-16.96 178.12-18.54 178.12-17.78ZM174.06 0L173.31 0 177.55-4.24 178.12-4.24 178.12-4.06 174.06 0ZM178.12-17.51L178.12-16.96 177.58-16.96 178.12-17.51ZM170.76-16.51L173.79-13.51 173.55-13.21 170.52-16.21 170.76-16.51ZM169.85-15.39L172.88-12.36 172.64-12.06 169.61-15.09 169.85-15.39ZM173.09-12.63L170.06-15.63 170.31-15.93 173.34-12.94 173.09-12.63ZM168.94-14.24L171.97-11.21 171.73-10.91 168.7-13.93 168.94-14.24ZM164.4-8.54L167.43-5.51 167.19-5.21 164.16-8.24 164.4-8.54ZM169.4-14.81L172.43-11.78 172.18-11.48 169.16-14.51 169.4-14.81ZM166.73-4.63L163.7-7.66 163.94-7.97 166.97-4.94 166.73-4.63ZM167.64-5.79L164.61-8.78 164.85-9.09 167.88-6.09 167.64-5.79ZM168.09-6.36L165.07-9.36 165.31-9.66 168.34-6.66 168.09-6.36ZM163.49-7.39L166.52-4.36 166.4-4.24 167.73-4.24 167.73 0 159.25 0 159.25-4.24 161.01-4.24 161.22-4.54 161.52-4.24 162.01-4.24 161.43-4.82 161.67-5.12 162.55-4.24 163.04-4.24 161.88-5.36 162.13-5.66 163.58-4.24 164.07-4.24 162.34-5.94 162.58-6.24 164.61-4.24 165.07-4.24 162.79-6.51 163.04-6.82 165.61-4.24 166.1-4.24 163.25-7.09 163.49-7.39ZM177.73-21.2L178.12-21.2 178.12-20.84 177.91-20.66 178.06-20.51 178.12-20.6 178.12-19.84 177.91-19.63 178.06-19.48 178.12-19.57 178.12-18.81 177.39-18.08 177.43-18.05 177.18-17.75 177.12-17.81 176.88-17.57 176.97-17.51 176.73-17.21 176.61-17.3 176.4-17.05 176.52-16.93 176.27-16.63 175.94-16.96 175.52-16.96 175.73-17.18 175.61-17.3 175.37-17.05 176.06-16.36 175.82-16.06 174.91-16.96 174.49-16.96 174.7-17.18 174.58-17.3 174.34-17.05 175.61-15.78 175.37-15.48 173.88-16.96 173.49-16.96 173.67-17.18 173.55-17.3 173.31-17.05 175.15-15.21 174.91-14.9 172.85-16.96 172.46-16.96 172.67-17.18 172.52-17.3 172.28-17.05 174.7-14.63 174.46-14.33 171.82-16.96 171.43-16.96 171.64-17.18 171.49-17.3 171.25-17.05 174.24-14.09 174-13.78 170.97-16.78 171.12-16.96 170.4-16.96 174.18-20.75 174.15-20.78 174.4-21.08 174.46-21.02 174.64-21.2 175.4-21.2 175.37-21.17 175.49-21.02 175.67-21.2 176.43-21.2 176.4-21.17 176.52-21.02 176.7-21.2 177.46-21.2 177.39-21.17 177.55-21.02 177.73-21.2ZM171.76-17.57L171.91-17.45 172.15-17.69 172-17.81 171.76-17.57ZM172.28-18.08L172.43-17.96 172.67-18.21 172.52-18.33 172.28-18.08ZM172.79-17.57L172.91-17.45 173.15-17.69 173.03-17.81 172.79-17.57ZM172.79-18.6L172.91-18.48 173.15-18.72 173.03-18.84 172.79-18.6ZM173.31-18.08L173.43-17.96 173.67-18.21 173.55-18.33 173.31-18.08ZM173.31-19.11L173.43-18.96 173.67-19.21 173.55-19.36 173.31-19.11ZM173.82-17.57L173.94-17.45 174.18-17.69 174.06-17.81 173.82-17.57ZM173.82-18.6L173.94-18.48 174.18-18.72 174.06-18.84 173.82-18.6ZM173.82-19.63L173.94-19.48 174.18-19.72 174.06-19.87 173.82-19.63ZM174.34-18.08L174.46-17.96 174.7-18.21 174.58-18.33 174.34-18.08ZM174.34-19.11L174.46-18.96 174.7-19.21 174.58-19.36 174.34-19.11ZM174.34-20.14L174.46-19.99 174.7-20.24 174.58-20.39 174.34-20.14ZM174.85-17.57L174.97-17.45 175.21-17.69 175.09-17.81 174.85-17.57ZM174.85-18.6L174.97-18.48 175.21-18.72 175.09-18.84 174.85-18.6ZM174.85-19.63L174.97-19.48 175.21-19.72 175.09-19.87 174.85-19.63ZM174.85-20.66L174.97-20.51 175.21-20.75 175.09-20.9 174.85-20.66ZM175.37-18.08L175.49-17.96 175.73-18.21 175.61-18.33 175.37-18.08ZM175.37-19.11L175.49-18.96 175.73-19.21 175.61-19.36 175.37-19.11ZM175.37-20.14L175.49-19.99 175.73-20.24 175.61-20.39 175.37-20.14ZM175.88-17.57L176-17.45 176.24-17.69 176.12-17.81 175.88-17.57ZM175.88-18.6L176-18.48 176.24-18.72 176.12-18.84 175.88-18.6ZM175.88-19.63L176-19.48 176.24-19.72 176.12-19.87 175.88-19.63ZM175.88-20.66L176-20.51 176.24-20.75 176.12-20.9 175.88-20.66ZM176.4-18.08L176.52-17.96 176.76-18.21 176.61-18.33 176.4-18.08ZM176.4-19.11L176.52-18.96 176.76-19.21 176.61-19.36 176.4-19.11ZM176.4-20.14L176.52-19.99 176.76-20.24 176.61-20.39 176.4-20.14ZM176.88-18.6L177.03-18.48 177.27-18.72 177.12-18.84 176.88-18.6ZM176.88-19.63L177.03-19.48 177.27-19.72 177.12-19.87 176.88-19.63ZM176.88-20.66L177.03-20.51 177.27-20.75 177.12-20.9 176.88-20.66ZM177.39-19.11L177.55-18.96 177.79-19.21 177.64-19.36 177.39-19.11ZM177.39-20.14L177.55-19.99 177.79-20.24 177.64-20.39 177.39-20.14Z" transform="translate(0.21000000834465027, 21.420000076293945)"></path></g> <!----> <!----> <!----> <!----> <!----> <!----> <!----></g></g> <g data-gra="path-slogan" fill-rule="" class="tp-slogan iconsvg-slogansvg" fill="#000000" transform="translate(5,27.6299991607666)"><rect x="0" height="1" y="3.580000400543213" width="32.935001373291016"></rect> <rect height="1" y="3.580000400543213" width="32.935001373291016" x="135.39500045776367"></rect> <g transform="translate(35.935001373291016,0)"><g transform="scale(1)"><path d="M1.04-7.87L1.04-3.25C1.04-2.62 1.12-2.09 1.26-1.66C1.40-1.22 1.60-0.87 1.85-0.61C2.11-0.34 2.41-0.15 2.75-0.03C3.10 0.09 3.48 0.14 3.88 0.14C4.28 0.14 4.65 0.09 4.99-0.03C5.34-0.15 5.63-0.34 5.89-0.61C6.14-0.87 6.34-1.22 6.48-1.66C6.62-2.09 6.70-2.62 6.70-3.25L6.70-7.87L5.74-7.87L5.74-3.23C5.74-2.76 5.69-2.36 5.59-2.04C5.50-1.72 5.36-1.46 5.20-1.27C5.03-1.08 4.83-0.94 4.61-0.86C4.38-0.77 4.14-0.73 3.88-0.73C3.62-0.73 3.38-0.77 3.16-0.86C2.93-0.94 2.74-1.08 2.57-1.27C2.41-1.46 2.28-1.72 2.18-2.04C2.09-2.36 2.04-2.76 2.04-3.23L2.04-7.87ZM8.82-7.87L8.82 0L9.77 0L9.77-4.12C9.77-4.53 9.75-4.95 9.73-5.36C9.70-5.77 9.67-6.18 9.64-6.58L9.68-6.58L10.54-4.96L13.39 0L14.42 0L14.42-7.87L13.48-7.87L13.48-3.80C13.48-3.39 13.49-2.97 13.52-2.54C13.55-2.11 13.57-1.70 13.60-1.30L13.55-1.30L12.70-2.93L9.85-7.87ZM16.58-7.87L16.58 0L17.58 0L17.58-7.87ZM18.66-7.87L21.18 0L22.34 0L24.84-7.87L23.82-7.87L22.56-3.62C22.42-3.15 22.30-2.72 22.19-2.32C22.08-1.92 21.95-1.48 21.80-1.02L21.76-1.02C21.60-1.48 21.47-1.92 21.37-2.32C21.26-2.72 21.13-3.15 20.99-3.62L19.73-7.87ZM25.92-7.87L25.92 0L30.58 0L30.58-0.85L26.92-0.85L26.92-3.71L29.90-3.71L29.90-4.56L26.92-4.56L26.92-7.03L30.46-7.03L30.46-7.87ZM33.24-4.14L33.24-7.07L34.56-7.07C35.18-7.07 35.65-6.96 35.98-6.76C36.30-6.55 36.47-6.18 36.47-5.66C36.47-5.15 36.30-4.77 35.98-4.52C35.65-4.27 35.18-4.14 34.56-4.14ZM36.56 0L37.69 0L35.70-3.43C36.24-3.57 36.66-3.82 36.98-4.19C37.30-4.56 37.46-5.05 37.46-5.66C37.46-6.07 37.40-6.42 37.26-6.70C37.12-6.98 36.93-7.20 36.69-7.38C36.45-7.56 36.15-7.68 35.81-7.76C35.47-7.83 35.10-7.87 34.70-7.87L32.24-7.87L32.24 0L33.24 0L33.24-3.32L34.67-3.32ZM39.07-1.72L38.47-1.02C38.82-0.66 39.22-0.38 39.70-0.17C40.17 0.04 40.68 0.14 41.23 0.14C41.65 0.14 42.02 0.09 42.35-0.03C42.68-0.15 42.96-0.31 43.19-0.51C43.42-0.71 43.60-0.95 43.72-1.22C43.85-1.50 43.91-1.79 43.91-2.10C43.91-2.39 43.87-2.64 43.78-2.86C43.70-3.08 43.58-3.27 43.44-3.44C43.30-3.60 43.12-3.75 42.92-3.87C42.72-3.99 42.51-4.10 42.29-4.20L41.17-4.68C41.01-4.74 40.86-4.81 40.70-4.89C40.55-4.97 40.41-5.05 40.28-5.15C40.16-5.25 40.05-5.37 39.98-5.50C39.90-5.63 39.86-5.80 39.86-5.99C39.86-6.35 40.00-6.63 40.27-6.83C40.53-7.04 40.89-7.14 41.33-7.14C41.70-7.14 42.03-7.07 42.32-6.94C42.61-6.81 42.88-6.63 43.12-6.40L43.66-7.04C43.38-7.33 43.04-7.57 42.64-7.75C42.24-7.93 41.80-8.02 41.33-8.02C40.97-8.02 40.64-7.96 40.34-7.86C40.04-7.76 39.78-7.61 39.56-7.42C39.34-7.23 39.17-7.01 39.04-6.76C38.92-6.50 38.86-6.22 38.86-5.93C38.86-5.64 38.90-5.39 39-5.17C39.10-4.95 39.22-4.76 39.37-4.60C39.52-4.44 39.70-4.30 39.89-4.19C40.08-4.08 40.27-3.98 40.45-3.90L41.58-3.41C41.76-3.32 41.94-3.24 42.10-3.16C42.26-3.08 42.39-2.99 42.51-2.89C42.63-2.79 42.72-2.67 42.79-2.53C42.85-2.39 42.89-2.22 42.89-2.02C42.89-1.63 42.74-1.32 42.46-1.09C42.17-0.85 41.76-0.73 41.24-0.73C40.84-0.73 40.44-0.82 40.06-1.00C39.68-1.18 39.35-1.42 39.07-1.72ZM45.46-7.87L45.46 0L50.11 0L50.11-0.85L46.45-0.85L46.45-3.71L49.44-3.71L49.44-4.56L46.45-4.56L46.45-7.03L49.99-7.03L49.99-7.87ZM54.20-7.87L54.20 0L56.22 0C56.81 0 57.34-0.09 57.79-0.27C58.25-0.45 58.63-0.71 58.94-1.05C59.26-1.39 59.49-1.81 59.65-2.30C59.81-2.79 59.89-3.35 59.89-3.97C59.89-5.23 59.58-6.19 58.94-6.86C58.31-7.54 57.39-7.87 56.17-7.87ZM56.10-0.82L55.20-0.82L55.20-7.06L56.10-7.06C57.02-7.06 57.71-6.79 58.17-6.26C58.63-5.74 58.86-4.97 58.86-3.97C58.86-2.97 58.63-2.20 58.17-1.64C57.71-1.09 57.02-0.82 56.10-0.82ZM61.58-7.87L61.58 0L66.24 0L66.24-0.85L62.58-0.85L62.58-3.71L65.57-3.71L65.57-4.56L62.58-4.56L62.58-7.03L66.12-7.03L66.12-7.87ZM67.93-1.72L67.33-1.02C67.68-0.66 68.08-0.38 68.56-0.17C69.03 0.04 69.54 0.14 70.09 0.14C70.51 0.14 70.88 0.09 71.21-0.03C71.54-0.15 71.82-0.31 72.05-0.51C72.28-0.71 72.46-0.95 72.58-1.22C72.71-1.50 72.77-1.79 72.77-2.10C72.77-2.39 72.73-2.64 72.64-2.86C72.56-3.08 72.44-3.27 72.30-3.44C72.16-3.60 71.98-3.75 71.78-3.87C71.58-3.99 71.37-4.10 71.15-4.20L70.03-4.68C69.87-4.74 69.72-4.81 69.56-4.89C69.41-4.97 69.27-5.05 69.14-5.15C69.02-5.25 68.91-5.37 68.84-5.50C68.76-5.63 68.72-5.80 68.72-5.99C68.72-6.35 68.86-6.63 69.13-6.83C69.39-7.04 69.75-7.14 70.19-7.14C70.56-7.14 70.89-7.07 71.18-6.94C71.47-6.81 71.74-6.63 71.98-6.40L72.52-7.04C72.24-7.33 71.90-7.57 71.50-7.75C71.10-7.93 70.66-8.02 70.19-8.02C69.83-8.02 69.50-7.96 69.20-7.86C68.90-7.76 68.64-7.61 68.42-7.42C68.20-7.23 68.03-7.01 67.90-6.76C67.78-6.50 67.72-6.22 67.72-5.93C67.72-5.64 67.76-5.39 67.86-5.17C67.96-4.95 68.08-4.76 68.23-4.60C68.38-4.44 68.56-4.30 68.75-4.19C68.94-4.08 69.13-3.98 69.31-3.90L70.44-3.41C70.62-3.32 70.80-3.24 70.96-3.16C71.12-3.08 71.25-2.99 71.37-2.89C71.49-2.79 71.58-2.67 71.65-2.53C71.71-2.39 71.75-2.22 71.75-2.02C71.75-1.63 71.60-1.32 71.32-1.09C71.03-0.85 70.62-0.73 70.10-0.73C69.70-0.73 69.30-0.82 68.92-1.00C68.54-1.18 68.21-1.42 67.93-1.72ZM74.32-7.87L74.32 0L75.31 0L75.31-7.87ZM77.02-3.94C77.02-3.30 77.10-2.72 77.28-2.21C77.46-1.71 77.70-1.28 78.01-0.93C78.32-0.58 78.70-0.32 79.13-0.13C79.56 0.05 80.04 0.14 80.56 0.14C81.08 0.14 81.56 0.06 81.98-0.11C82.40-0.29 82.74-0.50 82.99-0.77L82.99-4.08L80.41-4.08L80.41-3.25L82.08-3.25L82.08-1.20C81.92-1.06 81.71-0.94 81.46-0.86C81.21-0.77 80.94-0.73 80.66-0.73C80.24-0.73 79.87-0.81 79.54-0.96C79.22-1.11 78.95-1.33 78.73-1.61C78.51-1.89 78.34-2.23 78.22-2.62C78.11-3.02 78.05-3.46 78.05-3.96C78.05-4.45 78.11-4.89 78.23-5.28C78.36-5.67 78.53-6.01 78.76-6.28C78.98-6.56 79.25-6.77 79.57-6.92C79.89-7.07 80.25-7.14 80.65-7.14C81.05-7.14 81.38-7.07 81.64-6.93C81.90-6.79 82.13-6.62 82.33-6.41L82.90-7.04C82.66-7.28 82.37-7.51 82.00-7.71C81.64-7.91 81.18-8.02 80.64-8.02C80.11-8.02 79.63-7.92 79.19-7.73C78.75-7.55 78.37-7.28 78.04-6.92C77.72-6.57 77.47-6.14 77.29-5.64C77.11-5.14 77.02-4.57 77.02-3.94ZM84.88-7.87L84.88 0L85.82 0L85.82-4.12C85.82-4.53 85.81-4.95 85.78-5.36C85.75-5.77 85.72-6.18 85.69-6.58L85.74-6.58L86.59-4.96L89.45 0L90.48 0L90.48-7.87L89.53-7.87L89.53-3.80C89.53-3.39 89.55-2.97 89.57-2.54C89.60-2.11 89.63-1.70 89.65-1.30L89.60-1.30L88.75-2.93L85.91-7.87ZM92.66-1.72L92.06-1.02C92.41-0.66 92.82-0.38 93.29-0.17C93.76 0.04 94.27 0.14 94.82 0.14C95.24 0.14 95.61 0.09 95.94-0.03C96.27-0.15 96.55-0.31 96.78-0.51C97.01-0.71 97.19-0.95 97.31-1.22C97.44-1.50 97.50-1.79 97.50-2.10C97.50-2.39 97.46-2.64 97.37-2.86C97.29-3.08 97.18-3.27 97.03-3.44C96.89-3.60 96.72-3.75 96.52-3.87C96.32-3.99 96.10-4.10 95.88-4.20L94.76-4.68C94.60-4.74 94.45-4.81 94.30-4.89C94.14-4.97 94.00-5.05 93.88-5.15C93.75-5.25 93.65-5.37 93.57-5.50C93.49-5.63 93.46-5.80 93.46-5.99C93.46-6.35 93.59-6.63 93.86-6.83C94.13-7.04 94.48-7.14 94.92-7.14C95.29-7.14 95.62-7.07 95.91-6.94C96.20-6.81 96.47-6.63 96.71-6.40L97.25-7.04C96.97-7.33 96.63-7.57 96.23-7.75C95.83-7.93 95.39-8.02 94.92-8.02C94.56-8.02 94.23-7.96 93.93-7.86C93.63-7.76 93.37-7.61 93.15-7.42C92.93-7.23 92.76-7.01 92.63-6.76C92.51-6.50 92.45-6.22 92.45-5.93C92.45-5.64 92.50-5.39 92.59-5.17C92.69-4.95 92.81-4.76 92.96-4.60C93.12-4.44 93.29-4.30 93.48-4.19C93.67-4.08 93.86-3.98 94.04-3.90L95.17-3.41C95.36-3.32 95.53-3.24 95.69-3.16C95.85-3.08 95.99-2.99 96.10-2.89C96.22-2.79 96.31-2.67 96.38-2.53C96.45-2.39 96.48-2.22 96.48-2.02C96.48-1.63 96.34-1.32 96.05-1.09C95.76-0.85 95.36-0.73 94.84-0.73C94.43-0.73 94.03-0.82 93.65-1.00C93.27-1.18 92.94-1.42 92.66-1.72Z" transform="translate(-1.044, 8.016)"></path></g></g></g></g></g><defs v-gra="od"></defs></svg>