<?xml version="1.0" standalone="no"?>
<!DOCTYPE svg PUBLIC "-//W3C//DTD SVG 20010904//EN"
 "http://www.w3.org/TR/2001/REC-SVG-20010904/DTD/svg10.dtd">
<svg version="1.0" xmlns="http://www.w3.org/2000/svg"
 width="446.000000pt" height="176.000000pt" viewBox="0 0 446.000000 176.000000"
 preserveAspectRatio="xMidYMid meet">

<g transform="translate(0.000000,176.000000) scale(0.100000,-0.100000)"
fill="#000000" stroke="none">
<path d="M755 1649 c-116 -17 -221 -59 -325 -129 -79 -53 -87 -65 -65 -90 24
-27 27 -26 82 17 86 66 210 115 346 138 34 5 37 8 37 40 0 19 -3 34 -7 34 -5
-1 -35 -5 -68 -10z"/>
<path d="M910 1625 l0 -32 83 -16 c114 -21 187 -51 280 -114 l79 -54 24 22 24
22 -57 44 c-99 77 -260 141 -390 156 -43 5 -43 5 -43 -28z"/>
<path d="M1431 1376 c-23 -24 -23 -26 -7 -48 84 -116 132 -222 149 -328 14
-92 13 -90 51 -90 l36 0 -7 48 c-20 157 -78 291 -180 420 l-19 23 -23 -25z"/>
<path d="M241 1338 c-75 -100 -151 -298 -151 -395 0 -30 3 -33 29 -33 32 0 35
5 46 83 13 96 71 230 131 304 19 23 34 46 34 51 0 10 -33 42 -43 42 -3 0 -24
-24 -46 -52z"/>
<path d="M732 1296 c-90 -30 -152 -106 -167 -209 -10 -66 1 -112 37 -153 45
-51 94 -72 247 -105 75 -17 156 -40 181 -52 57 -28 85 -78 75 -137 -14 -83
-95 -126 -240 -124 -127 1 -190 44 -216 147 l-11 47 -54 0 c-50 0 -54 -2 -54
-23 0 -54 32 -129 71 -168 70 -70 113 -83 274 -84 127 0 145 2 193 24 113 51
166 169 132 293 -26 92 -91 130 -311 182 -86 20 -165 44 -177 52 -29 20 -44
81 -32 124 14 48 47 78 104 95 135 40 272 -16 292 -120 6 -35 6 -35 60 -35
l54 0 -6 33 c-16 97 -68 167 -151 203 -52 23 -242 29 -301 10z"/>
<path d="M1730 925 l0 -215 25 0 c25 0 25 1 25 83 1 137 14 170 77 189 65 19
83 -17 83 -162 l0 -110 25 0 25 0 0 114 c0 125 -10 167 -45 190 -34 22 -97 20
-128 -4 -14 -11 -28 -20 -31 -20 -3 0 -6 34 -6 75 0 73 -1 75 -25 75 l-25 0 0
-215z"/>
<path d="M2750 925 l0 -215 30 0 30 0 1 178 1 177 60 -177 c58 -174 60 -178
88 -178 26 0 30 6 58 83 16 45 42 120 57 167 15 47 31 89 36 95 5 5 9 -66 9
-168 l0 -177 25 0 25 0 0 216 0 215 -42 -3 -41 -3 -60 -178 c-33 -98 -63 -175
-67 -170 -4 4 -33 86 -65 181 l-57 172 -44 0 -44 0 0 -215z"/>
<path d="M3956 1128 c4 -7 36 -55 71 -105 l64 -93 -76 -110 -76 -110 33 0 c30
0 37 7 88 85 30 47 58 85 61 85 3 0 31 -38 63 -85 53 -80 58 -85 92 -85 l35 0
-76 111 -76 110 64 92 c86 125 83 117 48 117 -26 0 -37 -10 -86 -80 -31 -44
-58 -80 -59 -80 -2 0 -27 36 -56 80 -49 74 -55 80 -87 80 -25 0 -32 -4 -27
-12z"/>
<path d="M3800 1065 c0 -38 -3 -45 -20 -45 -13 0 -20 -7 -20 -20 0 -13 7 -20
20 -20 19 0 20 -7 20 -118 0 -136 8 -152 74 -152 30 0 37 3 34 18 -2 9 -13 18
-25 20 -27 4 -33 27 -33 140 l0 92 30 0 c23 0 30 5 30 19 0 14 -8 21 -27 23
-25 3 -28 7 -31 46 -3 37 -6 42 -28 42 -22 0 -24 -4 -24 -45z"/>
<path d="M2128 1014 c-52 -28 -86 -127 -67 -198 29 -110 164 -151 238 -72 51
54 57 167 14 233 -32 49 -128 68 -185 37z m106 -34 c33 -12 56 -59 56 -114 0
-72 -19 -100 -81 -119 -27 -9 -75 19 -89 52 -17 42 -9 135 14 160 10 11 28 22
40 24 11 2 24 5 28 6 4 0 18 -3 32 -9z"/>
<path d="M2481 1004 c-30 -25 -31 -25 -31 -5 0 14 -6 21 -20 21 -19 0 -20 -7
-20 -215 l0 -215 25 0 c24 0 25 2 25 77 l0 76 21 -19 c27 -25 95 -25 133 -1
57 38 84 156 52 232 -30 72 -127 98 -185 49z m113 -32 c15 -9 36 -71 36 -109
0 -84 -58 -139 -120 -113 -72 30 -74 203 -1 228 24 9 64 6 85 -6z"/>
<path d="M3299 1015 c-15 -8 -32 -29 -38 -46 -14 -41 -15 -39 14 -39 14 0 25
5 25 10 0 24 41 50 78 50 45 0 75 -26 70 -62 -3 -20 -11 -24 -77 -35 -109 -18
-138 -45 -129 -118 7 -64 115 -94 175 -49 29 21 30 21 41 3 15 -24 82 -27 82
-4 0 8 -9 15 -20 15 -19 0 -20 7 -20 104 0 121 -8 149 -49 171 -37 19 -117 19
-152 0z m151 -181 c0 -14 -5 -34 -11 -46 -11 -21 -66 -48 -98 -48 -42 0 -69
63 -37 89 14 12 81 28 124 30 17 1 22 -4 22 -25z"/>
<path d="M3677 1003 c-26 -27 -27 -27 -27 -5 0 17 -6 22 -25 22 l-25 0 0 -155
0 -155 25 0 25 0 0 104 c0 117 14 148 70 159 24 5 30 12 30 32 0 35 -37 34
-73 -2z"/>
<path d="M93 765 c12 -123 105 -335 177 -400 20 -18 21 -18 43 3 15 16 19 26
12 35 -89 118 -138 226 -158 345 -13 77 -13 77 -47 80 l-33 3 6 -66z"/>
<path d="M1586 808 c-2 -13 -9 -52 -16 -87 -17 -96 -47 -165 -107 -254 l-55
-80 24 -23 23 -23 43 57 c78 104 140 260 155 390 l5 42 -34 0 c-27 0 -34 -4
-38 -22z"/>
<path d="M2190 431 c0 -51 31 -91 57 -75 13 8 18 24 19 60 l1 49 -4 -47 c-3
-30 -9 -48 -19 -52 -26 -10 -34 3 -34 55 0 27 -4 49 -10 49 -5 0 -10 -18 -10
-39z"/>
<path d="M2320 415 c0 -62 17 -75 22 -17 l3 37 27 -45 27 -45 -1 65 c-1 60 -1
62 -7 20 l-6 -45 -23 43 c-12 23 -27 42 -32 42 -6 0 -10 -25 -10 -55z"/>
<path d="M2450 415 c0 -30 5 -55 10 -55 6 0 10 25 10 55 0 30 -4 55 -10 55 -5
0 -10 -25 -10 -55z"/>
<path d="M2516 418 c20 -68 31 -78 44 -44 14 39 12 57 -4 21 l-13 -30 -12 53
c-7 28 -17 52 -21 52 -5 0 -2 -24 6 -52z"/>
<path d="M2573 455 c-3 -9 -3 -18 -1 -21 3 -3 8 4 11 16 6 23 -1 27 -10 5z"/>
<path d="M2622 413 l3 -58 35 -1 c26 -1 28 -1 8 3 -36 6 -40 49 -5 56 l22 4
-22 2 c-35 2 -31 39 5 44 21 3 19 4 -11 6 l-38 1 3 -57z"/>
<path d="M2730 415 c0 -30 5 -55 10 -55 6 0 10 9 10 20 0 27 14 25 35 -6 9
-14 19 -23 22 -21 2 3 -3 17 -12 31 -10 14 -13 26 -7 26 16 0 24 32 11 44 -9
8 -10 7 -6 -6 6 -16 -17 -38 -37 -38 -15 0 -4 49 12 53 10 3 6 5 -10 6 -27 1
-28 0 -28 -54z"/>
<path d="M2857 463 c-16 -15 -5 -39 25 -56 31 -18 32 -20 14 -32 -10 -8 -25
-12 -34 -9 -10 3 -7 -1 5 -7 18 -9 26 -9 38 1 23 19 18 38 -16 55 -33 18 -34
40 -1 39 12 0 19 3 16 8 -6 10 -38 11 -47 1z"/>
<path d="M2960 410 l0 -60 33 1 c30 2 30 2 5 6 -22 3 -28 10 -28 28 0 18 6 25
28 28 l27 4 -27 2 c-21 1 -28 6 -28 20 0 14 8 21 28 24 25 4 25 4 -5 6 l-33 1
0 -60z"/>
<path d="M3120 409 l0 -61 27 7 c40 10 53 24 53 55 0 32 -27 60 -58 60 -20 0
-22 -5 -22 -61z m60 32 c17 -32 12 -61 -12 -70 -32 -12 -38 -6 -38 45 0 37 3
44 20 44 10 0 24 -9 30 -19z"/>
<path d="M3250 410 l0 -60 33 1 c30 2 30 2 5 6 -36 6 -40 49 -5 56 l22 4 -22
2 c-35 2 -31 39 5 44 25 4 25 4 -5 6 l-33 1 0 -60z"/>
<path d="M3360 455 c-15 -18 -1 -40 31 -50 24 -8 24 -24 2 -41 -10 -7 -13 -14
-7 -14 18 0 37 28 30 45 -3 9 -14 18 -23 22 -30 11 -33 27 -10 40 16 9 18 12
6 13 -9 0 -22 -7 -29 -15z"/>
<path d="M3473 410 c0 -36 2 -50 4 -32 2 17 2 47 0 65 -2 17 -4 3 -4 -33z"/>
<path d="M3534 445 c-21 -32 -11 -72 21 -87 19 -8 28 -8 40 2 24 20 19 50 -7
49 -17 -1 -19 -2 -5 -6 22 -6 22 -29 0 -37 -22 -9 -45 16 -45 49 0 30 18 47
45 41 9 -2 15 0 11 5 -10 17 -44 9 -60 -16z"/>
<path d="M3652 413 l1 -58 6 45 6 45 28 -47 c16 -27 31 -48 33 -48 2 0 3 28 2
63 l-1 62 -6 -48 -6 -48 -24 46 c-13 25 -28 45 -32 45 -5 0 -8 -26 -7 -57z"/>
<path d="M3786 454 c-7 -19 8 -41 35 -49 23 -8 25 -31 3 -39 -9 -4 -14 -9 -11
-13 9 -8 37 17 37 33 0 8 -11 19 -24 26 -35 15 -40 37 -13 48 22 9 22 9 1 9
-12 1 -25 -6 -28 -15z"/>
<path d="M1810 410 c0 -6 62 -10 165 -10 103 0 165 4 165 10 0 6 -62 10 -165
10 -103 0 -165 -4 -165 -10z"/>
<path d="M3900 410 c0 -6 62 -10 165 -10 103 0 165 4 165 10 0 6 -62 10 -165
10 -103 0 -165 -4 -165 -10z"/>
<path d="M365 310 c-23 -26 -12 -39 75 -95 111 -71 214 -108 353 -128 l38 -6
-3 37 -3 37 -64 8 c-115 14 -234 64 -326 137 -45 36 -47 36 -70 10z"/>
<path d="M1304 299 c-82 -65 -227 -124 -339 -138 -49 -6 -50 -7 -53 -43 l-3
-38 48 6 c142 19 274 72 386 155 l57 43 -22 23 c-12 13 -25 23 -28 23 -4 0
-25 -14 -46 -31z"/>
</g>
</svg>
